<svg width="33" height="36" viewBox="0 0 33 36" fill="none" xmlns="http://www.w3.org/2000/svg">
<mask id="mask0" mask-type="alpha" maskUnits="userSpaceOnUse" x="7" y="1" width="19" height="18">
<path fill-rule="evenodd" clip-rule="evenodd" d="M7 1H25.4969V18.348H7V1Z" fill="white"/>
</mask>
<g mask="url(#mask0)">
<path fill-rule="evenodd" clip-rule="evenodd" d="M16.247 2.5C12.752 2.5 10.316 5.238 10.316 7.695C10.316 9.774 9.73901 10.735 9.22901 11.583C8.82001 12.264 8.49701 12.802 8.49701 13.971C8.66401 15.857 9.90901 16.848 16.247 16.848C22.55 16.848 23.834 15.813 24 13.906C23.997 12.802 23.674 12.264 23.265 11.583C22.755 10.735 22.178 9.774 22.178 7.695C22.178 5.238 19.742 2.5 16.247 2.5ZM16.247 18.348C11.571 18.348 7.34501 18.018 7.00001 14.035C6.99701 12.387 7.50001 11.549 7.94401 10.811C8.39301 10.063 8.81601 9.358 8.81601 7.695C8.81601 4.462 11.802 1 16.247 1C20.692 1 23.678 4.462 23.678 7.695C23.678 9.358 24.101 10.063 24.55 10.811C24.994 11.549 25.497 12.387 25.497 13.971C25.148 18.018 20.923 18.348 16.247 18.348Z" fill="#6F6F6F"/>
</g>
<path fill-rule="evenodd" clip-rule="evenodd" d="M16.1983 22.5H16.1963C15.0753 22.499 14.0143 22.005 13.2093 21.108C12.9323 20.801 12.9573 20.326 13.2653 20.05C13.5733 19.772 14.0473 19.797 14.3243 20.106C14.8423 20.683 15.5073 21 16.1973 21H16.1983C16.8913 21 17.5593 20.683 18.0783 20.105C18.3563 19.798 18.8303 19.773 19.1373 20.05C19.4453 20.327 19.4703 20.802 19.1933 21.109C18.3853 22.006 17.3223 22.5 16.1983 22.5Z" fill="#6F6F6F"/>
<g opacity="0.65">
<path d="M4.75098 31.1445H1.77246L1.10352 33H0.136719L2.85156 25.8906H3.67188L6.3916 33H5.42969L4.75098 31.1445ZM2.05566 30.373H4.47266L3.26172 27.0479L2.05566 30.373ZM9.32617 32.3604C9.64844 32.3604 9.93001 32.2627 10.1709 32.0674C10.4118 31.8721 10.5452 31.6279 10.5713 31.335H11.4258C11.4095 31.6377 11.3053 31.9258 11.1133 32.1992C10.9212 32.4727 10.6641 32.6908 10.3418 32.8535C10.0228 33.0163 9.68424 33.0977 9.32617 33.0977C8.60677 33.0977 8.03385 32.8584 7.60742 32.3799C7.18424 31.8981 6.97266 31.2406 6.97266 30.4072V30.2559C6.97266 29.7415 7.06706 29.2842 7.25586 28.8838C7.44466 28.4834 7.71484 28.1725 8.06641 27.9512C8.42122 27.7298 8.83952 27.6191 9.32129 27.6191C9.91374 27.6191 10.4053 27.7965 10.7959 28.1514C11.1898 28.5062 11.3997 28.9668 11.4258 29.5332H10.5713C10.5452 29.1914 10.415 28.9115 10.1807 28.6934C9.94954 28.472 9.66309 28.3613 9.32129 28.3613C8.8623 28.3613 8.50586 28.5273 8.25195 28.8594C8.0013 29.1882 7.87598 29.665 7.87598 30.29V30.4609C7.87598 31.0697 8.0013 31.5384 8.25195 31.8672C8.5026 32.196 8.86068 32.3604 9.32617 32.3604ZM13.667 26.4375V27.7168H14.6533V28.415H13.667V31.6914C13.667 31.903 13.7109 32.0625 13.7988 32.1699C13.8867 32.2741 14.0365 32.3262 14.248 32.3262C14.3522 32.3262 14.4954 32.3066 14.6777 32.2676V33C14.4401 33.0651 14.209 33.0977 13.9844 33.0977C13.5807 33.0977 13.2764 32.9756 13.0713 32.7314C12.8662 32.4873 12.7637 32.1406 12.7637 31.6914V28.415H11.8018V27.7168H12.7637V26.4375H13.667ZM16.6943 33H15.791V27.7168H16.6943V33ZM15.7178 26.3154C15.7178 26.1689 15.7617 26.0452 15.8496 25.9443C15.9408 25.8434 16.0742 25.793 16.25 25.793C16.4258 25.793 16.5592 25.8434 16.6504 25.9443C16.7415 26.0452 16.7871 26.1689 16.7871 26.3154C16.7871 26.4619 16.7415 26.584 16.6504 26.6816C16.5592 26.7793 16.4258 26.8281 16.25 26.8281C16.0742 26.8281 15.9408 26.7793 15.8496 26.6816C15.7617 26.584 15.7178 26.4619 15.7178 26.3154ZM19.8877 31.7744L21.1963 27.7168H22.1191L20.2246 33H19.5361L17.6221 27.7168H18.5449L19.8877 31.7744ZM23.9697 33H23.0664V27.7168H23.9697V33ZM22.9932 26.3154C22.9932 26.1689 23.0371 26.0452 23.125 25.9443C23.2161 25.8434 23.3496 25.793 23.5254 25.793C23.7012 25.793 23.8346 25.8434 23.9258 25.9443C24.0169 26.0452 24.0625 26.1689 24.0625 26.3154C24.0625 26.4619 24.0169 26.584 23.9258 26.6816C23.8346 26.7793 23.7012 26.8281 23.5254 26.8281C23.3496 26.8281 23.2161 26.7793 23.125 26.6816C23.0371 26.584 22.9932 26.4619 22.9932 26.3154ZM26.6455 26.4375V27.7168H27.6318V28.415H26.6455V31.6914C26.6455 31.903 26.6895 32.0625 26.7773 32.1699C26.8652 32.2741 27.015 32.3262 27.2266 32.3262C27.3307 32.3262 27.474 32.3066 27.6562 32.2676V33C27.4186 33.0651 27.1875 33.0977 26.9629 33.0977C26.5592 33.0977 26.2549 32.9756 26.0498 32.7314C25.8447 32.4873 25.7422 32.1406 25.7422 31.6914V28.415H24.7803V27.7168H25.7422V26.4375H26.6455ZM30.4199 31.6768L31.6504 27.7168H32.6172L30.4932 33.8154C30.1644 34.6943 29.6419 35.1338 28.9258 35.1338L28.7549 35.1191L28.418 35.0557V34.3232L28.6621 34.3428C28.9681 34.3428 29.2057 34.2809 29.375 34.1572C29.5475 34.0335 29.6891 33.8073 29.7998 33.4785L30 32.9414L28.1152 27.7168H29.1016L30.4199 31.6768Z" fill="#141414"/>
<path d="M4.75098 31.1445L4.77915 31.1342L4.77195 31.1145H4.75098V31.1445ZM1.77246 31.1445V31.1145H1.75139L1.74424 31.1344L1.77246 31.1445ZM1.10352 33V33.03H1.12459L1.13174 33.0102L1.10352 33ZM0.136719 33L0.108693 32.9893L0.0931498 33.03H0.136719V33ZM2.85156 25.8906V25.8606H2.83091L2.82354 25.8799L2.85156 25.8906ZM3.67188 25.8906L3.69989 25.8799L3.69252 25.8606H3.67188V25.8906ZM6.3916 33V33.03H6.4352L6.41962 32.9893L6.3916 33ZM5.42969 33L5.40151 33.0103L5.40872 33.03H5.42969V33ZM2.05566 30.373L2.02746 30.3628L2.01287 30.403H2.05566V30.373ZM4.47266 30.373V30.403H4.51551L4.50085 30.3628L4.47266 30.373ZM3.26172 27.0479L3.28991 27.0376L3.26166 26.96L3.23352 27.0376L3.26172 27.0479ZM4.75098 31.1145H1.77246V31.1745H4.75098V31.1145ZM1.74424 31.1344L1.07529 32.9898L1.13174 33.0102L1.80068 31.1547L1.74424 31.1344ZM1.10352 32.97H0.136719V33.03H1.10352V32.97ZM0.164745 33.0107L2.87959 25.9013L2.82354 25.8799L0.108693 32.9893L0.164745 33.0107ZM2.85156 25.9206H3.67188V25.8606H2.85156V25.9206ZM3.64386 25.9013L6.36358 33.0107L6.41962 32.9893L3.69989 25.8799L3.64386 25.9013ZM6.3916 32.97H5.42969V33.03H6.3916V32.97ZM5.45786 32.9897L4.77915 31.1342L4.7228 31.1548L5.40151 33.0103L5.45786 32.9897ZM2.05566 30.403H4.47266V30.343H2.05566V30.403ZM4.50085 30.3628L3.28991 27.0376L3.23353 27.0581L4.44447 30.3833L4.50085 30.3628ZM3.23352 27.0376L2.02746 30.3628L2.08387 30.3833L3.28992 27.0581L3.23352 27.0376ZM10.5713 31.335V31.305H10.5438L10.5414 31.3323L10.5713 31.335ZM11.4258 31.335L11.4557 31.3366L11.4574 31.305H11.4258V31.335ZM10.3418 32.8535L10.3283 32.8267L10.3282 32.8268L10.3418 32.8535ZM7.60742 32.3799L7.58488 32.3997L7.58502 32.3998L7.60742 32.3799ZM8.06641 27.9512L8.05053 27.9257L8.05042 27.9258L8.06641 27.9512ZM10.7959 28.1514L10.7757 28.1736L10.7758 28.1737L10.7959 28.1514ZM11.4258 29.5332V29.5632H11.4572L11.4557 29.5318L11.4258 29.5332ZM10.5713 29.5332L10.5414 29.5355L10.5435 29.5632H10.5713V29.5332ZM10.1807 28.6934L10.1599 28.715L10.1602 28.7153L10.1807 28.6934ZM8.25195 28.8594L8.22812 28.8412L8.2281 28.8412L8.25195 28.8594ZM9.32617 32.3904C9.65503 32.3904 9.94334 32.2905 10.1898 32.0907L10.152 32.0441C9.91669 32.2349 9.64185 32.3304 9.32617 32.3304V32.3904ZM10.1898 32.0907C10.4366 31.8906 10.5744 31.6391 10.6012 31.3376L10.5414 31.3323C10.5161 31.6167 10.387 31.8536 10.152 32.0441L10.1898 32.0907ZM10.5713 31.365H11.4258V31.305H10.5713V31.365ZM11.3958 31.3334C11.3799 31.6299 11.2779 31.9127 11.0887 32.182L11.1378 32.2165C11.3328 31.9389 11.4391 31.6455 11.4557 31.3366L11.3958 31.3334ZM11.0887 32.182C10.8997 32.4511 10.6465 32.666 10.3283 32.8267L10.3553 32.8803C10.6816 32.7155 10.9427 32.4943 11.1378 32.2165L11.0887 32.182ZM10.3282 32.8268C10.0134 32.9874 9.6795 33.0677 9.32617 33.0677V33.1277C9.68899 33.1277 10.0322 33.0452 10.3554 32.8802L10.3282 32.8268ZM9.32617 33.0677C8.61416 33.0677 8.04983 32.8312 7.62982 32.3599L7.58502 32.3998C8.01788 32.8856 8.59938 33.1277 9.32617 33.1277V33.0677ZM7.62996 32.3601C7.21289 31.8853 7.00266 31.2355 7.00266 30.4072H6.94266C6.94266 31.2456 7.1556 31.911 7.58488 32.3997L7.62996 32.3601ZM7.00266 30.4072V30.2559H6.94266V30.4072H7.00266ZM7.00266 30.2559C7.00266 29.7452 7.09636 29.2924 7.28299 28.8966L7.22872 28.871C7.03775 29.276 6.94266 29.7378 6.94266 30.2559H7.00266ZM7.28299 28.8966C7.46952 28.501 7.73599 28.1947 8.08239 27.9766L8.05042 27.9258C7.6937 28.1504 7.4198 28.4658 7.22872 28.871L7.28299 28.8966ZM8.08229 27.9766C8.43165 27.7587 8.84426 27.6491 9.32129 27.6491V27.5891C8.83478 27.5891 8.4108 27.701 8.05053 27.9257L8.08229 27.9766ZM9.32129 27.6491C9.90726 27.6491 10.3913 27.8244 10.7757 28.1736L10.8161 28.1292C10.4192 27.7687 9.92021 27.5891 9.32129 27.5891V27.6491ZM10.7758 28.1737C11.1633 28.5227 11.3701 28.9756 11.3958 29.5346L11.4557 29.5318C11.4294 28.958 11.2163 28.4897 10.816 28.1291L10.7758 28.1737ZM11.4258 29.5032H10.5713V29.5632H11.4258V29.5032ZM10.6012 29.5309C10.5746 29.1822 10.4414 28.895 10.2011 28.6714L10.1602 28.7153C10.3887 28.9279 10.5159 29.2006 10.5414 29.5355L10.6012 29.5309ZM10.2014 28.6717C9.96431 28.4446 9.67024 28.3313 9.32129 28.3313V28.3913C9.65593 28.3913 9.93478 28.4994 10.1599 28.715L10.2014 28.6717ZM9.32129 28.3313C8.85402 28.3313 8.48832 28.5009 8.22812 28.8412L8.27578 28.8776C8.5234 28.5538 8.87059 28.3913 9.32129 28.3913V28.3313ZM8.2281 28.8412C7.97188 29.1773 7.84598 29.6617 7.84598 30.29H7.90598C7.90598 29.6684 8.03072 29.199 8.27581 28.8776L8.2281 28.8412ZM7.84598 30.29V30.4609H7.90598V30.29H7.84598ZM7.84598 30.4609C7.84598 31.0733 7.97197 31.5494 8.2281 31.8854L8.27581 31.849C8.03063 31.5274 7.90598 31.0661 7.90598 30.4609H7.84598ZM8.2281 31.8854C8.48519 32.2226 8.85266 32.3904 9.32617 32.3904V32.3304C8.86869 32.3304 8.52002 32.1693 8.27581 31.849L8.2281 31.8854ZM13.667 26.4375H13.697V26.4075H13.667V26.4375ZM13.667 27.7168H13.637V27.7468H13.667V27.7168ZM14.6533 27.7168H14.6833V27.6868H14.6533V27.7168ZM14.6533 28.415V28.445H14.6833V28.415H14.6533ZM13.667 28.415V28.385H13.637V28.415H13.667ZM13.7988 32.1699L13.7756 32.1889L13.7759 32.1893L13.7988 32.1699ZM14.6777 32.2676H14.7077V32.2305L14.6714 32.2382L14.6777 32.2676ZM14.6777 33L14.6857 33.0289L14.7077 33.0229V33H14.6777ZM12.7637 28.415H12.7937V28.385H12.7637V28.415ZM11.8018 28.415H11.7718V28.445H11.8018V28.415ZM11.8018 27.7168V27.6868H11.7718V27.7168H11.8018ZM12.7637 27.7168V27.7468H12.7937V27.7168H12.7637ZM12.7637 26.4375V26.4075H12.7337V26.4375H12.7637ZM13.637 26.4375V27.7168H13.697V26.4375H13.637ZM13.667 27.7468H14.6533V27.6868H13.667V27.7468ZM14.6233 27.7168V28.415H14.6833V27.7168H14.6233ZM14.6533 28.385H13.667V28.445H14.6533V28.385ZM13.637 28.415V31.6914H13.697V28.415H13.637ZM13.637 31.6914C13.637 31.9065 13.6816 32.074 13.7756 32.1889L13.822 32.1509C13.7403 32.051 13.697 31.8995 13.697 31.6914H13.637ZM13.7759 32.1893C13.872 32.3032 14.0325 32.3562 14.248 32.3562V32.2962C14.0404 32.2962 13.9014 32.245 13.8218 32.1506L13.7759 32.1893ZM14.248 32.3562C14.3554 32.3562 14.501 32.3361 14.684 32.2969L14.6714 32.2382C14.4899 32.2772 14.3491 32.2962 14.248 32.2962V32.3562ZM14.6477 32.2676V33H14.7077V32.2676H14.6477ZM14.6698 32.9711C14.4345 33.0355 14.2061 33.0677 13.9844 33.0677V33.1277C14.2119 33.1277 14.4457 33.0947 14.6857 33.0289L14.6698 32.9711ZM13.9844 33.0677C13.587 33.0677 13.2922 32.9478 13.0943 32.7121L13.0483 32.7507C13.2606 33.0034 13.5744 33.1277 13.9844 33.1277V33.0677ZM13.0943 32.7121C12.8953 32.4753 12.7937 32.1364 12.7937 31.6914H12.7337C12.7337 32.1448 12.8372 32.4994 13.0483 32.7507L13.0943 32.7121ZM12.7937 31.6914V28.415H12.7337V31.6914H12.7937ZM12.7637 28.385H11.8018V28.445H12.7637V28.385ZM11.8318 28.415V27.7168H11.7718V28.415H11.8318ZM11.8018 27.7468H12.7637V27.6868H11.8018V27.7468ZM12.7937 27.7168V26.4375H12.7337V27.7168H12.7937ZM12.7637 26.4675H13.667V26.4075H12.7637V26.4675ZM16.6943 33V33.03H16.7243V33H16.6943ZM15.791 33H15.761V33.03H15.791V33ZM15.791 27.7168V27.6868H15.761V27.7168H15.791ZM16.6943 27.7168H16.7243V27.6868H16.6943V27.7168ZM15.8496 25.9443L15.8273 25.9242L15.827 25.9246L15.8496 25.9443ZM15.8496 26.6816L15.8273 26.7017L15.8277 26.7021L15.8496 26.6816ZM16.6943 32.97H15.791V33.03H16.6943V32.97ZM15.821 33V27.7168H15.761V33H15.821ZM15.791 27.7468H16.6943V27.6868H15.791V27.7468ZM16.6643 27.7168V33H16.7243V27.7168H16.6643ZM15.7478 26.3154C15.7478 26.1754 15.7896 26.059 15.8722 25.964L15.827 25.9246C15.7339 26.0315 15.6878 26.1624 15.6878 26.3154H15.7478ZM15.8719 25.9644C15.9558 25.8716 16.0801 25.823 16.25 25.823V25.763C16.0684 25.763 15.9257 25.8153 15.8273 25.9242L15.8719 25.9644ZM16.25 25.823C16.4199 25.823 16.5442 25.8716 16.6281 25.9644L16.6727 25.9242C16.5743 25.8153 16.4316 25.763 16.25 25.763V25.823ZM16.6281 25.9644C16.7139 26.0594 16.7571 26.1758 16.7571 26.3154H16.8171C16.8171 26.1621 16.7692 26.0311 16.6727 25.9242L16.6281 25.9644ZM16.7571 26.3154C16.7571 26.4551 16.7139 26.5696 16.6285 26.6612L16.6723 26.7021C16.7692 26.5983 16.8171 26.4687 16.8171 26.3154H16.7571ZM16.6285 26.6612C16.5446 26.751 16.4202 26.7981 16.25 26.7981V26.8581C16.4313 26.8581 16.5739 26.8076 16.6723 26.7021L16.6285 26.6612ZM16.25 26.7981C16.0798 26.7981 15.9554 26.751 15.8715 26.6612L15.8277 26.7021C15.9261 26.8076 16.0687 26.8581 16.25 26.8581V26.7981ZM15.8719 26.6616C15.7896 26.5701 15.7478 26.4554 15.7478 26.3154H15.6878C15.6878 26.4684 15.7339 26.5979 15.8273 26.7017L15.8719 26.6616ZM19.8877 31.7744L19.8592 31.7838L19.8881 31.871L19.9162 31.7836L19.8877 31.7744ZM21.1963 27.7168V27.6868H21.1744L21.1677 27.7076L21.1963 27.7168ZM22.1191 27.7168L22.1474 27.7269L22.1618 27.6868H22.1191V27.7168ZM20.2246 33V33.03H20.2457L20.2528 33.0101L20.2246 33ZM19.5361 33L19.5079 33.0102L19.5151 33.03H19.5361V33ZM17.6221 27.7168V27.6868H17.5793L17.5939 27.727L17.6221 27.7168ZM18.5449 27.7168L18.5734 27.7074L18.5666 27.6868H18.5449V27.7168ZM19.9162 31.7836L21.2248 27.726L21.1677 27.7076L19.8591 31.7652L19.9162 31.7836ZM21.1963 27.7468H22.1191V27.6868H21.1963V27.7468ZM22.0909 27.7067L20.1964 32.9899L20.2528 33.0101L22.1474 27.7269L22.0909 27.7067ZM20.2246 32.97H19.5361V33.03H20.2246V32.97ZM19.5643 32.9898L17.6503 27.7066L17.5939 27.727L19.5079 33.0102L19.5643 32.9898ZM17.6221 27.7468H18.5449V27.6868H17.6221V27.7468ZM18.5164 27.7262L19.8592 31.7838L19.9162 31.765L18.5734 27.7074L18.5164 27.7262ZM23.9697 33V33.03H23.9997V33H23.9697ZM23.0664 33H23.0364V33.03H23.0664V33ZM23.0664 27.7168V27.6868H23.0364V27.7168H23.0664ZM23.9697 27.7168H23.9997V27.6868H23.9697V27.7168ZM23.125 25.9443L23.1027 25.9242L23.1024 25.9246L23.125 25.9443ZM23.125 26.6816L23.1027 26.7017L23.1031 26.7021L23.125 26.6816ZM23.9697 32.97H23.0664V33.03H23.9697V32.97ZM23.0964 33V27.7168H23.0364V33H23.0964ZM23.0664 27.7468H23.9697V27.6868H23.0664V27.7468ZM23.9397 27.7168V33H23.9997V27.7168H23.9397ZM23.0232 26.3154C23.0232 26.1754 23.065 26.059 23.1476 25.964L23.1024 25.9246C23.0093 26.0315 22.9632 26.1624 22.9632 26.3154H23.0232ZM23.1473 25.9644C23.2312 25.8716 23.3555 25.823 23.5254 25.823V25.763C23.3438 25.763 23.2011 25.8153 23.1027 25.9242L23.1473 25.9644ZM23.5254 25.823C23.6953 25.823 23.8196 25.8716 23.9035 25.9644L23.948 25.9242C23.8497 25.8153 23.707 25.763 23.5254 25.763V25.823ZM23.9035 25.9644C23.9893 26.0594 24.0325 26.1758 24.0325 26.3154H24.0925C24.0925 26.1621 24.0446 26.0311 23.948 25.9242L23.9035 25.9644ZM24.0325 26.3154C24.0325 26.4551 23.9893 26.5696 23.9038 26.6612L23.9477 26.7021C24.0446 26.5983 24.0925 26.4687 24.0925 26.3154H24.0325ZM23.9038 26.6612C23.82 26.751 23.6956 26.7981 23.5254 26.7981V26.8581C23.7067 26.8581 23.8493 26.8076 23.9477 26.7021L23.9038 26.6612ZM23.5254 26.7981C23.3552 26.7981 23.2308 26.751 23.1469 26.6612L23.1031 26.7021C23.2015 26.8076 23.3441 26.8581 23.5254 26.8581V26.7981ZM23.1473 26.6616C23.0649 26.5701 23.0232 26.4554 23.0232 26.3154H22.9632C22.9632 26.4684 23.0093 26.5979 23.1027 26.7017L23.1473 26.6616ZM26.6455 26.4375H26.6755V26.4075H26.6455V26.4375ZM26.6455 27.7168H26.6155V27.7468H26.6455V27.7168ZM27.6318 27.7168H27.6618V27.6868H27.6318V27.7168ZM27.6318 28.415V28.445H27.6618V28.415H27.6318ZM26.6455 28.415V28.385H26.6155V28.415H26.6455ZM26.7773 32.1699L26.7541 32.1889L26.7544 32.1893L26.7773 32.1699ZM27.6562 32.2676H27.6862V32.2305L27.65 32.2382L27.6562 32.2676ZM27.6562 33L27.6642 33.0289L27.6862 33.0229V33H27.6562ZM25.7422 28.415H25.7722V28.385H25.7422V28.415ZM24.7803 28.415H24.7503V28.445H24.7803V28.415ZM24.7803 27.7168V27.6868H24.7503V27.7168H24.7803ZM25.7422 27.7168V27.7468H25.7722V27.7168H25.7422ZM25.7422 26.4375V26.4075H25.7122V26.4375H25.7422ZM26.6155 26.4375V27.7168H26.6755V26.4375H26.6155ZM26.6455 27.7468H27.6318V27.6868H26.6455V27.7468ZM27.6018 27.7168V28.415H27.6618V27.7168H27.6018ZM27.6318 28.385H26.6455V28.445H27.6318V28.385ZM26.6155 28.415V31.6914H26.6755V28.415H26.6155ZM26.6155 31.6914C26.6155 31.9065 26.6601 32.074 26.7541 32.1889L26.8006 32.1509C26.7188 32.051 26.6755 31.8995 26.6755 31.6914H26.6155ZM26.7544 32.1893C26.8505 32.3032 27.011 32.3562 27.2266 32.3562V32.2962C27.0189 32.2962 26.8799 32.245 26.8003 32.1506L26.7544 32.1893ZM27.2266 32.3562C27.3339 32.3562 27.4795 32.3361 27.6625 32.2969L27.65 32.2382C27.4684 32.2772 27.3276 32.2962 27.2266 32.2962V32.3562ZM27.6263 32.2676V33H27.6862V32.2676H27.6263ZM27.6483 32.9711C27.413 33.0355 27.1846 33.0677 26.9629 33.0677V33.1277C27.1904 33.1277 27.4242 33.0947 27.6642 33.0289L27.6483 32.9711ZM26.9629 33.0677C26.5656 33.0677 26.2707 32.9478 26.0728 32.7121L26.0268 32.7507C26.2391 33.0034 26.5529 33.1277 26.9629 33.1277V33.0677ZM26.0728 32.7121C25.8738 32.4753 25.7722 32.1364 25.7722 31.6914H25.7122C25.7122 32.1448 25.8157 32.4994 26.0268 32.7507L26.0728 32.7121ZM25.7722 31.6914V28.415H25.7122V31.6914H25.7722ZM25.7422 28.385H24.7803V28.445H25.7422V28.385ZM24.8103 28.415V27.7168H24.7503V28.415H24.8103ZM24.7803 27.7468H25.7422V27.6868H24.7803V27.7468ZM25.7722 27.7168V26.4375H25.7122V27.7168H25.7722ZM25.7422 26.4675H26.6455V26.4075H25.7422V26.4675ZM30.4199 31.6768L30.3915 31.6862L30.4209 31.7747L30.4486 31.6857L30.4199 31.6768ZM31.6504 27.7168V27.6868H31.6283L31.6217 27.7079L31.6504 27.7168ZM32.6172 27.7168L32.6455 27.7267L32.6594 27.6868H32.6172V27.7168ZM30.4932 33.8154L30.5213 33.8259L30.5215 33.8253L30.4932 33.8154ZM28.9258 35.1338L28.9232 35.1638H28.9258V35.1338ZM28.7549 35.1191L28.7493 35.1488L28.7523 35.149L28.7549 35.1191ZM28.418 35.0557H28.388V35.0805L28.4124 35.0851L28.418 35.0557ZM28.418 34.3232L28.4204 34.2933L28.388 34.2907V34.3232H28.418ZM28.6621 34.3428L28.6597 34.3728H28.6621V34.3428ZM29.375 34.1572L29.3575 34.1328L29.3573 34.133L29.375 34.1572ZM29.7998 33.4785L29.7717 33.468L29.7714 33.4689L29.7998 33.4785ZM30 32.9414L30.0281 32.9519L30.032 32.9416L30.0282 32.9312L30 32.9414ZM28.1152 27.7168V27.6868H28.0725L28.087 27.727L28.1152 27.7168ZM29.1016 27.7168L29.13 27.7073L29.1232 27.6868H29.1016V27.7168ZM30.4486 31.6857L31.679 27.7257L31.6217 27.7079L30.3913 31.6679L30.4486 31.6857ZM31.6504 27.7468H32.6172V27.6868H31.6504V27.7468ZM32.5889 27.7069L30.4648 33.8056L30.5215 33.8253L32.6455 27.7267L32.5889 27.7069ZM30.4651 33.8049C30.3018 34.2413 30.0915 34.5659 29.8354 34.7812C29.5799 34.9962 29.2772 35.1038 28.9258 35.1038V35.1638C29.2905 35.1638 29.6071 35.0517 29.874 34.8272C30.1404 34.6031 30.3557 34.2685 30.5213 33.8259L30.4651 33.8049ZM28.9283 35.1039L28.7574 35.0893L28.7523 35.149L28.9232 35.1637L28.9283 35.1039ZM28.7604 35.0897L28.4235 35.0262L28.4124 35.0851L28.7493 35.1486L28.7604 35.0897ZM28.448 35.0557V34.3232H28.388V35.0557H28.448ZM28.4156 34.3531L28.6597 34.3727L28.6645 34.3129L28.4204 34.2933L28.4156 34.3531ZM28.6621 34.3728C28.9717 34.3728 29.2164 34.3103 29.3927 34.1814L29.3573 34.133C29.195 34.2516 28.9645 34.3128 28.6621 34.3128V34.3728ZM29.3925 34.1816C29.5724 34.0526 29.7167 33.8194 29.8282 33.4881L29.7714 33.4689C29.6615 33.7952 29.5226 34.0145 29.3575 34.1328L29.3925 34.1816ZM29.8279 33.489L30.0281 32.9519L29.9719 32.9309L29.7717 33.468L29.8279 33.489ZM30.0282 32.9312L28.1435 27.7066L28.087 27.727L29.9718 32.9516L30.0282 32.9312ZM28.1152 27.7468H29.1016V27.6868H28.1152V27.7468ZM29.0731 27.7263L30.3915 31.6862L30.4484 31.6673L29.13 27.7073L29.0731 27.7263Z" fill="#141414"/>
</g>
</svg>
