<svg width="40" height="36" viewBox="0 0 40 36" fill="none" xmlns="http://www.w3.org/2000/svg">
<path fill-rule="evenodd" clip-rule="evenodd" d="M28.6665 9.9043H10.8425C10.4285 9.9043 10.0925 9.5683 10.0925 9.1543C10.0925 8.7403 10.4285 8.4043 10.8425 8.4043H28.6665C29.0805 8.4043 29.4165 8.7403 29.4165 9.1543C29.4165 9.5683 29.0805 9.9043 28.6665 9.9043Z" fill="#6F6F6F"/>
<path fill-rule="evenodd" clip-rule="evenodd" d="M24.2013 13.8096C23.7873 13.8096 23.4473 13.4736 23.4473 13.0596C23.4473 12.6456 23.7783 12.3096 24.1923 12.3096H24.2013C24.6153 12.3096 24.9513 12.6456 24.9513 13.0596C24.9513 13.4736 24.6153 13.8096 24.2013 13.8096Z" fill="#6F6F6F"/>
<path d="M24.2013 13.8096C23.7873 13.8096 23.4473 13.4736 23.4473 13.0596C23.4473 12.6456 23.7783 12.3096 24.1923 12.3096H24.2013C24.6153 12.3096 24.9513 12.6456 24.9513 13.0596C24.9513 13.4736 24.6153 13.8096 24.2013 13.8096" stroke="#6F6F6F"/>
<path fill-rule="evenodd" clip-rule="evenodd" d="M19.7638 13.8096C19.3498 13.8096 19.0098 13.4736 19.0098 13.0596C19.0098 12.6456 19.3408 12.3096 19.7548 12.3096H19.7638C20.1778 12.3096 20.5138 12.6456 20.5138 13.0596C20.5138 13.4736 20.1778 13.8096 19.7638 13.8096Z" fill="#6F6F6F"/>
<path d="M19.7638 13.8096C19.3498 13.8096 19.0098 13.4736 19.0098 13.0596C19.0098 12.6456 19.3408 12.3096 19.7548 12.3096H19.7638C20.1778 12.3096 20.5138 12.6456 20.5138 13.0596C20.5138 13.4736 20.1778 13.8096 19.7638 13.8096" stroke="#6F6F6F"/>
<path fill-rule="evenodd" clip-rule="evenodd" d="M15.317 13.8096C14.903 13.8096 14.562 13.4736 14.562 13.0596C14.562 12.6456 14.894 12.3096 15.308 12.3096H15.317C15.731 12.3096 16.067 12.6456 16.067 13.0596C16.067 13.4736 15.731 13.8096 15.317 13.8096Z" fill="#6F6F6F"/>
<path d="M15.317 13.8096C14.903 13.8096 14.562 13.4736 14.562 13.0596C14.562 12.6456 14.894 12.3096 15.308 12.3096H15.317C15.731 12.3096 16.067 12.6456 16.067 13.0596C16.067 13.4736 15.731 13.8096 15.317 13.8096" stroke="#6F6F6F"/>
<path fill-rule="evenodd" clip-rule="evenodd" d="M19.7638 17.6963C19.3498 17.6963 19.0098 17.3603 19.0098 16.9463C19.0098 16.5323 19.3408 16.1963 19.7548 16.1963H19.7638C20.1778 16.1963 20.5138 16.5323 20.5138 16.9463C20.5138 17.3603 20.1778 17.6963 19.7638 17.6963Z" fill="#6F6F6F"/>
<path d="M19.7638 17.6963C19.3498 17.6963 19.0098 17.3603 19.0098 16.9463C19.0098 16.5323 19.3408 16.1963 19.7548 16.1963H19.7638C20.1778 16.1963 20.5138 16.5323 20.5138 16.9463C20.5138 17.3603 20.1778 17.6963 19.7638 17.6963" stroke="#6F6F6F"/>
<path fill-rule="evenodd" clip-rule="evenodd" d="M15.317 17.6963C14.903 17.6963 14.562 17.3603 14.562 16.9463C14.562 16.5323 14.894 16.1963 15.308 16.1963H15.317C15.731 16.1963 16.067 16.5323 16.067 16.9463C16.067 17.3603 15.731 17.6963 15.317 17.6963Z" fill="#6F6F6F"/>
<path d="M15.317 17.6963C14.903 17.6963 14.562 17.3603 14.562 16.9463C14.562 16.5323 14.894 16.1963 15.308 16.1963H15.317C15.731 16.1963 16.067 16.5323 16.067 16.9463C16.067 17.3603 15.731 17.6963 15.317 17.6963" stroke="#6F6F6F"/>
<mask id="mask0" mask-type="alpha" maskUnits="userSpaceOnUse" x="10" y="2" width="20" height="21">
<path fill-rule="evenodd" clip-rule="evenodd" d="M10 2.5791H29.5V22.5H10V2.5791Z" fill="white"/>
</mask>
<g mask="url(#mask0)">
<path fill-rule="evenodd" clip-rule="evenodd" d="M15.521 4.0791C12.928 4.0791 11.5 5.4621 11.5 7.9731V17.0221C11.5 19.5881 12.928 21.0001 15.521 21.0001H23.979C26.572 21.0001 28 19.6141 28 17.0981V7.9731C28.004 6.7381 27.672 5.7781 27.013 5.1181C26.335 4.4381 25.29 4.0791 23.988 4.0791H15.521ZM23.979 22.5001H15.521C12.116 22.5001 10 20.4011 10 17.0221V7.9731C10 4.6451 12.116 2.5791 15.521 2.5791H23.988C25.697 2.5791 27.11 3.0911 28.075 4.0581C29.012 4.9991 29.505 6.3521 29.5 7.9751V17.0981C29.5 20.4301 27.384 22.5001 23.979 22.5001Z" fill="#6F6F6F"/>
</g>
<g opacity="0.65">
<path d="M6.05469 32.7441C5.9668 33.4961 5.68848 34.0771 5.21973 34.4873C4.75423 34.8942 4.13411 35.0977 3.35938 35.0977C2.51953 35.0977 1.8457 34.7965 1.33789 34.1943C0.833333 33.5921 0.581055 32.7865 0.581055 31.7773V31.0938C0.581055 30.4329 0.698242 29.8519 0.932617 29.3506C1.17025 28.8493 1.50553 28.4652 1.93848 28.1982C2.37142 27.9281 2.87272 27.793 3.44238 27.793C4.19759 27.793 4.80306 28.0046 5.25879 28.4277C5.71452 28.8477 5.97982 29.4303 6.05469 30.1758H5.1123C5.03092 29.6094 4.85352 29.1992 4.58008 28.9453C4.3099 28.6914 3.93066 28.5645 3.44238 28.5645C2.84342 28.5645 2.37305 28.7858 2.03125 29.2285C1.69271 29.6712 1.52344 30.3011 1.52344 31.1182V31.8066C1.52344 32.5781 1.68457 33.1917 2.00684 33.6475C2.3291 34.1032 2.77995 34.3311 3.35938 34.3311C3.88021 34.3311 4.27897 34.2139 4.55566 33.9795C4.83561 33.7419 5.02116 33.3301 5.1123 32.7441H6.05469ZM10.459 35C10.4069 34.8958 10.3646 34.7103 10.332 34.4434C9.91211 34.8796 9.41081 35.0977 8.82812 35.0977C8.30729 35.0977 7.87923 34.9512 7.54395 34.6582C7.21191 34.362 7.0459 33.9876 7.0459 33.5352C7.0459 32.985 7.25423 32.5586 7.6709 32.2559C8.09082 31.9499 8.68001 31.7969 9.43848 31.7969H10.3174V31.3818C10.3174 31.0661 10.223 30.8154 10.0342 30.6299C9.84538 30.4411 9.56706 30.3467 9.19922 30.3467C8.87695 30.3467 8.60677 30.4281 8.38867 30.5908C8.17057 30.7536 8.06152 30.9505 8.06152 31.1816H7.15332C7.15332 30.918 7.24609 30.6641 7.43164 30.4199C7.62044 30.1725 7.87435 29.9772 8.19336 29.834C8.51562 29.6908 8.86882 29.6191 9.25293 29.6191C9.86165 29.6191 10.3385 29.7721 10.6836 30.0781C11.0286 30.3809 11.2077 30.7992 11.2207 31.333V33.7646C11.2207 34.2497 11.2826 34.6354 11.4062 34.9219V35H10.459ZM8.95996 34.3115C9.24316 34.3115 9.51172 34.2383 9.76562 34.0918C10.0195 33.9453 10.2035 33.7549 10.3174 33.5205V32.4365H9.60938C8.5026 32.4365 7.94922 32.7604 7.94922 33.4082C7.94922 33.6914 8.04362 33.9128 8.23242 34.0723C8.42122 34.2318 8.66374 34.3115 8.95996 34.3115ZM13.6182 35H12.7148V27.5H13.6182V35ZM17.2607 35.0977C16.5446 35.0977 15.9619 34.8633 15.5127 34.3945C15.0635 33.9225 14.8389 33.2926 14.8389 32.5049V32.3389C14.8389 31.8148 14.9382 31.3477 15.1367 30.9375C15.3385 30.5241 15.6185 30.2018 15.9766 29.9707C16.3379 29.7363 16.7285 29.6191 17.1484 29.6191C17.8353 29.6191 18.3691 29.8454 18.75 30.2979C19.1309 30.7503 19.3213 31.3981 19.3213 32.2412V32.6172H15.7422C15.7552 33.138 15.9066 33.5596 16.1963 33.8818C16.4893 34.2008 16.8604 34.3604 17.3096 34.3604C17.6286 34.3604 17.8988 34.2952 18.1201 34.165C18.3415 34.0348 18.5352 33.8623 18.7012 33.6475L19.2529 34.0771C18.8102 34.7575 18.1462 35.0977 17.2607 35.0977ZM17.1484 30.3613C16.7839 30.3613 16.4779 30.4948 16.2305 30.7617C15.9831 31.0254 15.8301 31.3965 15.7715 31.875H18.418V31.8066C18.3919 31.3477 18.2682 30.9928 18.0469 30.7422C17.8255 30.4883 17.526 30.3613 17.1484 30.3613ZM21.2256 29.7168L21.2549 30.3809C21.6585 29.873 22.1859 29.6191 22.8369 29.6191C23.9535 29.6191 24.5166 30.249 24.5264 31.5088V35H23.623V31.5039C23.6198 31.123 23.5319 30.8415 23.3594 30.6592C23.1901 30.4769 22.9248 30.3857 22.5635 30.3857C22.2705 30.3857 22.0133 30.4639 21.792 30.6201C21.5706 30.7764 21.3981 30.9814 21.2744 31.2354V35H20.3711V29.7168H21.2256ZM25.6689 32.3145C25.6689 31.5039 25.861 30.8529 26.2451 30.3613C26.6292 29.8665 27.1322 29.6191 27.7539 29.6191C28.3724 29.6191 28.8623 29.8307 29.2236 30.2539V27.5H30.127V35H29.2969L29.2529 34.4336C28.8916 34.8763 28.3887 35.0977 27.7441 35.0977C27.1322 35.0977 26.6325 34.847 26.2451 34.3457C25.861 33.8444 25.6689 33.1901 25.6689 32.3828V32.3145ZM26.5723 32.417C26.5723 33.016 26.696 33.4847 26.9434 33.8232C27.1908 34.1618 27.5326 34.3311 27.9688 34.3311C28.5417 34.3311 28.96 34.0739 29.2236 33.5596V31.1328C28.9535 30.6348 28.5384 30.3857 27.9785 30.3857C27.5358 30.3857 27.1908 30.5566 26.9434 30.8984C26.696 31.2402 26.5723 31.7464 26.5723 32.417ZM34.7949 35C34.7428 34.8958 34.7005 34.7103 34.668 34.4434C34.248 34.8796 33.7467 35.0977 33.1641 35.0977C32.6432 35.0977 32.2152 34.9512 31.8799 34.6582C31.5479 34.362 31.3818 33.9876 31.3818 33.5352C31.3818 32.985 31.5902 32.5586 32.0068 32.2559C32.4268 31.9499 33.016 31.7969 33.7744 31.7969H34.6533V31.3818C34.6533 31.0661 34.5589 30.8154 34.3701 30.6299C34.1813 30.4411 33.903 30.3467 33.5352 30.3467C33.2129 30.3467 32.9427 30.4281 32.7246 30.5908C32.5065 30.7536 32.3975 30.9505 32.3975 31.1816H31.4893C31.4893 30.918 31.582 30.6641 31.7676 30.4199C31.9564 30.1725 32.2103 29.9772 32.5293 29.834C32.8516 29.6908 33.2048 29.6191 33.5889 29.6191C34.1976 29.6191 34.6745 29.7721 35.0195 30.0781C35.3646 30.3809 35.5436 30.7992 35.5566 31.333V33.7646C35.5566 34.2497 35.6185 34.6354 35.7422 34.9219V35H34.7949ZM33.2959 34.3115C33.5791 34.3115 33.8477 34.2383 34.1016 34.0918C34.3555 33.9453 34.5394 33.7549 34.6533 33.5205V32.4365H33.9453C32.8385 32.4365 32.2852 32.7604 32.2852 33.4082C32.2852 33.6914 32.3796 33.9128 32.5684 34.0723C32.7572 34.2318 32.9997 34.3115 33.2959 34.3115ZM39.5264 30.5273C39.3896 30.5046 39.2415 30.4932 39.082 30.4932C38.4896 30.4932 38.0876 30.7454 37.876 31.25V35H36.9727V29.7168H37.8516L37.8662 30.3271C38.1624 29.8551 38.5824 29.6191 39.126 29.6191C39.3018 29.6191 39.4352 29.6419 39.5264 29.6875V30.5273Z" fill="#141414"/>
<path d="M6.05469 32.7441L6.08448 32.7476L6.0884 32.7141H6.05469V32.7441ZM5.21973 34.4873L5.23947 34.5099L5.23948 34.5099L5.21973 34.4873ZM1.33789 34.1943L1.31489 34.2136L1.31496 34.2137L1.33789 34.1943ZM0.932617 29.3506L0.905508 29.3377L0.905441 29.3379L0.932617 29.3506ZM1.93848 28.1982L1.95422 28.2238L1.95436 28.2237L1.93848 28.1982ZM5.25879 28.4277L5.23838 28.4497L5.23846 28.4498L5.25879 28.4277ZM6.05469 30.1758V30.2058H6.08785L6.08454 30.1728L6.05469 30.1758ZM5.1123 30.1758L5.08261 30.18L5.08631 30.2058H5.1123V30.1758ZM4.58008 28.9453L4.55953 28.9672L4.55966 28.9673L4.58008 28.9453ZM2.03125 29.2285L2.0075 29.2102L2.00742 29.2103L2.03125 29.2285ZM4.55566 33.9795L4.57505 34.0024L4.57508 34.0024L4.55566 33.9795ZM5.1123 32.7441V32.7141H5.08661L5.08266 32.7395L5.1123 32.7441ZM6.02489 32.7407C5.93767 33.4869 5.66197 34.0605 5.19997 34.4647L5.23948 34.5099C5.71498 34.0938 5.99593 33.5053 6.08448 32.7476L6.02489 32.7407ZM5.19998 34.4647C4.74123 34.8657 4.12875 35.0677 3.35938 35.0677V35.1277C4.13947 35.1277 4.76723 34.9227 5.23947 34.5099L5.19998 34.4647ZM3.35938 35.0677C2.52771 35.0677 1.86252 34.77 1.36083 34.175L1.31496 34.2137C1.82889 34.8231 2.51136 35.1277 3.35938 35.1277V35.0677ZM1.36089 34.1751C0.862013 33.5796 0.611055 32.7815 0.611055 31.7773H0.551055C0.551055 32.7915 0.804654 33.6046 1.3149 34.2136L1.36089 34.1751ZM0.611055 31.7773V31.0938H0.551055V31.7773H0.611055ZM0.611055 31.0938C0.611055 30.4365 0.727604 29.8599 0.959794 29.3633L0.905441 29.3379C0.66888 29.8439 0.551055 30.4294 0.551055 31.0938H0.611055ZM0.959726 29.3634C1.19511 28.8669 1.52666 28.4874 1.95422 28.2238L1.92273 28.1727C1.48441 28.443 1.14539 28.8317 0.905509 29.3377L0.959726 29.3634ZM1.95436 28.2237C2.382 27.9568 2.87766 27.823 3.44238 27.823V27.763C2.86778 27.763 2.36084 27.8993 1.92259 28.1728L1.95436 28.2237ZM3.44238 27.823C4.19173 27.823 4.78933 28.0328 5.23838 28.4497L5.2792 28.4058C4.81679 27.9764 4.20345 27.763 3.44238 27.763V27.823ZM5.23846 28.4498C5.68771 28.8638 5.95054 29.439 6.02484 30.1788L6.08454 30.1728C6.00909 29.4216 5.74132 28.8316 5.27912 28.4057L5.23846 28.4498ZM6.05469 30.1458H5.1123V30.2058H6.05469V30.1458ZM5.142 30.1715C5.06014 29.6018 4.88102 29.1838 4.60049 28.9233L4.55966 28.9673C4.82601 29.2146 5.00171 29.617 5.08261 30.18L5.142 30.1715ZM4.60062 28.9235C4.3233 28.6628 3.93581 28.5345 3.44238 28.5345V28.5945C3.92552 28.5945 4.2965 28.72 4.55953 28.9672L4.60062 28.9235ZM3.44238 28.5345C2.83489 28.5345 2.35543 28.7595 2.0075 29.2102L2.055 29.2468C2.39066 28.8121 2.85196 28.5945 3.44238 28.5945V28.5345ZM2.00742 29.2103C1.66339 29.6602 1.49344 30.2975 1.49344 31.1182H1.55344C1.55344 30.3047 1.72202 29.6823 2.05508 29.2467L2.00742 29.2103ZM1.49344 31.1182V31.8066H1.55344V31.1182H1.49344ZM1.49344 31.8066C1.49344 32.582 1.65536 33.2024 1.98234 33.6648L2.03133 33.6301C1.71378 33.1811 1.55344 32.5742 1.55344 31.8066H1.49344ZM1.98234 33.6648C2.31048 34.1288 2.77065 34.3611 3.35938 34.3611V34.3011C2.78925 34.3011 2.34772 34.0776 2.03133 33.6301L1.98234 33.6648ZM3.35938 34.3611C3.88427 34.3611 4.291 34.243 4.57505 34.0024L4.53627 33.9566C4.26694 34.1847 3.87615 34.3011 3.35938 34.3011V34.3611ZM4.57508 34.0024C4.86302 33.7579 5.05033 33.3377 5.14195 32.7488L5.08266 32.7395C4.99198 33.3225 4.8082 33.7258 4.53625 33.9566L4.57508 34.0024ZM5.1123 32.7741H6.05469V32.7141H5.1123V32.7741ZM10.459 35L10.4322 35.0134L10.4404 35.03H10.459V35ZM10.332 34.4434L10.3618 34.4397L10.3542 34.3771L10.3104 34.4226L10.332 34.4434ZM7.54395 34.6582L7.52397 34.6806L7.52421 34.6808L7.54395 34.6582ZM7.6709 32.2559L7.68853 32.2801L7.68857 32.2801L7.6709 32.2559ZM10.3174 31.7969V31.8269H10.3474V31.7969H10.3174ZM10.0342 30.6299L10.013 30.6511L10.0132 30.6513L10.0342 30.6299ZM8.06152 31.1816V31.2116H8.09152V31.1816H8.06152ZM7.15332 31.1816H7.12332V31.2116H7.15332V31.1816ZM7.43164 30.4199L7.40779 30.4017L7.40776 30.4018L7.43164 30.4199ZM8.19336 29.834L8.18118 29.8066L8.18107 29.8066L8.19336 29.834ZM10.6836 30.0781L10.6637 30.1006L10.6638 30.1007L10.6836 30.0781ZM11.2207 31.333H11.2507L11.2507 31.3323L11.2207 31.333ZM11.4062 34.9219H11.4389L11.4338 34.91L11.4062 34.9219ZM11.4062 35V35.03H11.4362V35H11.4062ZM10.3174 33.5205L10.3474 33.5351V33.5205H10.3174ZM10.3174 32.4365H10.3474V32.4065H10.3174V32.4365ZM10.4858 34.9866C10.4363 34.8875 10.3943 34.7065 10.3618 34.4397L10.3023 34.447C10.3348 34.714 10.3775 34.9042 10.4322 35.0134L10.4858 34.9866ZM10.3104 34.4226C9.8959 34.8531 9.4023 35.0677 8.82812 35.0677V35.1277C9.41931 35.1277 9.92832 34.906 10.3536 34.4642L10.3104 34.4226ZM8.82812 35.0677C8.31325 35.0677 7.8926 34.923 7.56368 34.6356L7.52421 34.6808C7.86587 34.9793 8.30134 35.1277 8.82812 35.1277V35.0677ZM7.56392 34.6358C7.23839 34.3454 7.0759 33.9792 7.0759 33.5352H7.0159C7.0159 33.996 7.18544 34.3786 7.52397 34.6806L7.56392 34.6358ZM7.0759 33.5352C7.0759 32.9939 7.28023 32.5768 7.68853 32.2801L7.65326 32.2316C7.22823 32.5404 7.0159 32.9762 7.0159 33.5352H7.0759ZM7.68857 32.2801C8.10148 31.9792 8.68357 31.8269 9.43848 31.8269V31.7669C8.67646 31.7669 8.08016 31.9205 7.65323 32.2316L7.68857 32.2801ZM9.43848 31.8269H10.3174V31.7669H9.43848V31.8269ZM10.3474 31.7969V31.3818H10.2874V31.7969H10.3474ZM10.3474 31.3818C10.3474 31.0597 10.2508 30.8007 10.0552 30.6085L10.0132 30.6513C10.1951 30.8301 10.2874 31.0725 10.2874 31.3818H10.3474ZM10.0554 30.6087C9.85911 30.4124 9.57195 30.3167 9.19922 30.3167V30.3767C9.56217 30.3767 9.83164 30.4698 10.013 30.6511L10.0554 30.6087ZM9.19922 30.3167C8.87172 30.3167 8.59492 30.3995 8.37073 30.5668L8.40661 30.6149C8.61863 30.4566 8.88219 30.3767 9.19922 30.3767V30.3167ZM8.37073 30.5668C8.14657 30.7341 8.03152 30.9393 8.03152 31.1816H8.09152C8.09152 30.9617 8.19458 30.7731 8.40661 30.6149L8.37073 30.5668ZM8.06152 31.1516H7.15332V31.2116H8.06152V31.1516ZM7.18332 31.1816C7.18332 30.9256 7.27327 30.6779 7.45553 30.4381L7.40776 30.4018C7.21891 30.6502 7.12332 30.9104 7.12332 31.1816H7.18332ZM7.45549 30.4381C7.6409 30.1952 7.89062 30.0028 8.20565 29.8614L8.18107 29.8066C7.85808 29.9516 7.59998 30.1499 7.40779 30.4017L7.45549 30.4381ZM8.20554 29.8614C8.52364 29.72 8.87263 29.6491 9.25293 29.6491V29.5891C8.865 29.5891 8.50761 29.6615 8.18118 29.8066L8.20554 29.8614ZM9.25293 29.6491C9.85671 29.6491 10.3257 29.8008 10.6637 30.1006L10.7035 30.0557C10.3514 29.7434 9.8666 29.5891 9.25293 29.5891V29.6491ZM10.6638 30.1007C11.0015 30.397 11.1779 30.8068 11.1907 31.3337L11.2507 31.3323C11.2375 30.7915 11.0558 30.3648 10.7034 30.0556L10.6638 30.1007ZM11.1907 31.333V33.7646H11.2507V31.333H11.1907ZM11.1907 33.7646C11.1907 34.2517 11.2527 34.6421 11.3787 34.9338L11.4338 34.91C11.3124 34.6288 11.2507 34.2476 11.2507 33.7646H11.1907ZM11.3763 34.9219V35H11.4362V34.9219H11.3763ZM11.4062 34.97H10.459V35.03H11.4062V34.97ZM8.95996 34.3415C9.24862 34.3415 9.52232 34.2668 9.78062 34.1178L9.75063 34.0658C9.50112 34.2098 9.23771 34.2815 8.95996 34.2815V34.3415ZM9.78062 34.1178C10.039 33.9687 10.2275 33.774 10.3444 33.5336L10.2904 33.5074C10.1794 33.7357 10 33.9219 9.75063 34.0658L9.78062 34.1178ZM10.3474 33.5205V32.4365H10.2874V33.5205H10.3474ZM10.3174 32.4065H9.60938V32.4665H10.3174V32.4065ZM9.60938 32.4065C9.05405 32.4065 8.63263 32.4876 8.3491 32.6536C8.0631 32.8209 7.91922 33.0738 7.91922 33.4082H7.97922C7.97922 33.0948 8.11203 32.8618 8.37941 32.7053C8.64927 32.5474 9.05793 32.4665 9.60938 32.4665V32.4065ZM7.91922 33.4082C7.91922 33.6988 8.01649 33.9291 8.21306 34.0952L8.25178 34.0493C8.07075 33.8964 7.97922 33.684 7.97922 33.4082H7.91922ZM8.21306 34.0952C8.4083 34.2601 8.65812 34.3415 8.95996 34.3415V34.2815C8.66935 34.2815 8.43414 34.2034 8.25178 34.0493L8.21306 34.0952ZM13.6182 35V35.03H13.6482V35H13.6182ZM12.7148 35H12.6848V35.03H12.7148V35ZM12.7148 27.5V27.47H12.6848V27.5H12.7148ZM13.6182 27.5H13.6482V27.47H13.6182V27.5ZM13.6182 34.97H12.7148V35.03H13.6182V34.97ZM12.7448 35V27.5H12.6848V35H12.7448ZM12.7148 27.53H13.6182V27.47H12.7148V27.53ZM13.5882 27.5V35H13.6482V27.5H13.5882ZM15.5127 34.3945L15.491 34.4152L15.491 34.4153L15.5127 34.3945ZM15.1367 30.9375L15.1098 30.9243L15.1097 30.9244L15.1367 30.9375ZM15.9766 29.9707L15.9928 29.9959L15.9929 29.9959L15.9766 29.9707ZM18.75 30.2979L18.727 30.3172L18.75 30.2979ZM19.3213 32.6172V32.6472H19.3513V32.6172H19.3213ZM15.7422 32.6172V32.5872H15.7114L15.7122 32.6179L15.7422 32.6172ZM16.1963 33.8818L16.174 33.9019L16.1742 33.9021L16.1963 33.8818ZM18.7012 33.6475L18.7196 33.6238L18.6958 33.6053L18.6774 33.6291L18.7012 33.6475ZM19.2529 34.0771L19.2781 34.0935L19.2931 34.0704L19.2714 34.0535L19.2529 34.0771ZM16.2305 30.7617L16.2523 30.7822L16.2525 30.7821L16.2305 30.7617ZM15.7715 31.875L15.7417 31.8714L15.7376 31.905H15.7715V31.875ZM18.418 31.875V31.905H18.448V31.875H18.418ZM18.418 31.8066H18.448L18.4479 31.8049L18.418 31.8066ZM18.0469 30.7422L18.0243 30.7619L18.0244 30.762L18.0469 30.7422ZM17.2607 35.0677C16.5518 35.0677 15.9773 34.836 15.5344 34.3738L15.491 34.4153C15.9465 34.8906 16.5373 35.1277 17.2607 35.1277V35.0677ZM15.5344 34.3738C15.0916 33.9085 14.8689 33.2866 14.8689 32.5049H14.8089C14.8089 33.2986 15.0354 33.9365 15.491 34.4152L15.5344 34.3738ZM14.8689 32.5049V32.3389H14.8089V32.5049H14.8689ZM14.8689 32.3389C14.8689 31.8186 14.9674 31.3561 15.1637 30.9506L15.1097 30.9244C14.9089 31.3392 14.8089 31.8109 14.8089 32.3389H14.8689ZM15.1637 30.9507C15.3633 30.5418 15.6397 30.2238 15.9928 29.9959L15.9603 29.9455C15.5973 30.1798 15.3138 30.5064 15.1098 30.9243L15.1637 30.9507ZM15.9929 29.9959C16.3495 29.7646 16.7345 29.6491 17.1484 29.6491V29.5891C16.7226 29.5891 16.3263 29.7081 15.9602 29.9455L15.9929 29.9959ZM17.1484 29.6491C17.828 29.6491 18.3528 29.8726 18.727 30.3172L18.773 30.2785C18.3854 29.8182 17.8425 29.5891 17.1484 29.5891V29.6491ZM18.727 30.3172C19.1018 30.7623 19.2913 31.4022 19.2913 32.2412H19.3513C19.3513 31.394 19.16 30.7383 18.773 30.2785L18.727 30.3172ZM19.2913 32.2412V32.6172H19.3513V32.2412H19.2913ZM19.3213 32.5872H15.7422V32.6472H19.3213V32.5872ZM15.7122 32.6179C15.7254 33.1444 15.8786 33.5733 16.174 33.9019L16.2186 33.8618C15.9346 33.5459 15.7851 33.1316 15.7722 32.6164L15.7122 32.6179ZM16.1742 33.9021C16.4731 34.2276 16.8523 34.3904 17.3096 34.3904V34.3304C16.8684 34.3304 16.5054 34.1741 16.2184 33.8615L16.1742 33.9021ZM17.3096 34.3904C17.6326 34.3904 17.9084 34.3244 18.1353 34.1909L18.1049 34.1392C17.8892 34.2661 17.6245 34.3304 17.3096 34.3304V34.3904ZM18.1353 34.1909C18.3602 34.0586 18.5567 33.8835 18.7249 33.6658L18.6774 33.6291C18.5136 33.8411 18.3228 34.011 18.1049 34.1392L18.1353 34.1909ZM18.6827 33.6711L19.2345 34.1008L19.2714 34.0535L18.7196 33.6238L18.6827 33.6711ZM19.2278 34.0608C18.7912 34.7317 18.1371 35.0677 17.2607 35.0677V35.1277C18.1552 35.1277 18.8293 34.7832 19.2781 34.0935L19.2278 34.0608ZM17.1484 30.3313C16.7755 30.3313 16.4616 30.4683 16.2085 30.7413L16.2525 30.7821C16.4942 30.5213 16.7922 30.3913 17.1484 30.3913V30.3313ZM16.2086 30.7412C15.9556 31.0108 15.8008 31.3886 15.7417 31.8714L15.8013 31.8786C15.8593 31.4044 16.0106 31.0399 16.2523 30.7822L16.2086 30.7412ZM15.7715 31.905H18.418V31.845H15.7715V31.905ZM18.448 31.875V31.8066H18.388V31.875H18.448ZM18.4479 31.8049C18.4216 31.3417 18.2966 30.9796 18.0694 30.7223L18.0244 30.762C18.2399 31.0061 18.3622 31.3536 18.388 31.8083L18.4479 31.8049ZM18.0695 30.7225C17.8417 30.4612 17.5335 30.3313 17.1484 30.3313V30.3913C17.5185 30.3913 17.8093 30.5154 18.0243 30.7619L18.0695 30.7225ZM21.2256 29.7168L21.2556 29.7155L21.2543 29.6868H21.2256V29.7168ZM21.2549 30.3809L21.2249 30.3822L21.2284 30.4623L21.2784 30.3995L21.2549 30.3809ZM24.5264 31.5088H24.5564L24.5564 31.5086L24.5264 31.5088ZM24.5264 35V35.03H24.5564V35H24.5264ZM23.623 35H23.593V35.03H23.623V35ZM23.623 31.5039H23.653L23.653 31.5036L23.623 31.5039ZM23.3594 30.6592L23.3374 30.6796L23.3376 30.6798L23.3594 30.6592ZM21.2744 31.2354L21.2444 31.2207V31.2354H21.2744ZM21.2744 35V35.03H21.3044V35H21.2744ZM20.3711 35H20.3411V35.03H20.3711V35ZM20.3711 29.7168V29.6868H20.3411V29.7168H20.3711ZM21.1956 29.7181L21.2249 30.3822L21.2849 30.3795L21.2556 29.7155L21.1956 29.7181ZM21.2784 30.3995C21.6763 29.8989 22.195 29.6491 22.8369 29.6491V29.5891C22.1768 29.5891 21.6408 29.8472 21.2314 30.3622L21.2784 30.3995ZM22.8369 29.6491C23.3895 29.6491 23.8001 29.8049 24.0743 30.1115C24.3491 30.4189 24.4915 30.883 24.4964 31.509L24.5564 31.5086C24.5515 30.8749 24.4074 30.3941 24.119 30.0716C23.8301 29.7484 23.4008 29.5891 22.8369 29.5891V29.6491ZM24.4964 31.5088V35H24.5564V31.5088H24.4964ZM24.5264 34.97H23.623V35.03H24.5264V34.97ZM23.653 35V31.5039H23.593V35H23.653ZM23.653 31.5036C23.6498 31.119 23.561 30.8286 23.3812 30.6386L23.3376 30.6798C23.5028 30.8543 23.5898 31.1271 23.593 31.5042L23.653 31.5036ZM23.3814 30.6388C23.2042 30.448 22.9293 30.3557 22.5635 30.3557V30.4157C22.9203 30.4157 23.176 30.5057 23.3374 30.6796L23.3814 30.6388ZM22.5635 30.3557C22.2648 30.3557 22.0015 30.4355 21.7747 30.5956L21.8093 30.6446C22.0252 30.4922 22.2762 30.4157 22.5635 30.4157V30.3557ZM21.7747 30.5956C21.549 30.7549 21.3733 30.964 21.2474 31.2222L21.3014 31.2485C21.423 30.9989 21.5922 30.7978 21.8093 30.6446L21.7747 30.5956ZM21.2444 31.2354V35H21.3044V31.2354H21.2444ZM21.2744 34.97H20.3711V35.03H21.2744V34.97ZM20.4011 35V29.7168H20.3411V35H20.4011ZM20.3711 29.7468H21.2256V29.6868H20.3711V29.7468ZM26.2451 30.3613L26.2688 30.3798L26.2688 30.3797L26.2451 30.3613ZM29.2236 30.2539L29.2008 30.2734L29.2536 30.3352V30.2539H29.2236ZM29.2236 27.5V27.47H29.1936V27.5H29.2236ZM30.127 27.5H30.157V27.47H30.127V27.5ZM30.127 35V35.03H30.157V35H30.127ZM29.2969 35L29.267 35.0023L29.2691 35.03H29.2969V35ZM29.2529 34.4336L29.2828 34.4313L29.277 34.3566L29.2297 34.4146L29.2529 34.4336ZM26.2451 34.3457L26.2213 34.3639L26.2214 34.364L26.2451 34.3457ZM29.2236 33.5596L29.2536 33.575V33.5596H29.2236ZM29.2236 31.1328H29.2536V31.1252L29.25 31.1185L29.2236 31.1328ZM25.6989 32.3145C25.6989 31.5086 25.8899 30.8647 26.2688 30.3798L26.2215 30.3429C25.8322 30.8411 25.6389 31.4992 25.6389 32.3145H25.6989ZM26.2688 30.3797C26.6473 29.8922 27.1415 29.6491 27.7539 29.6491V29.5891C27.1228 29.5891 26.6112 29.8409 26.2214 30.3429L26.2688 30.3797ZM27.7539 29.6491C28.3647 29.6491 28.8459 29.8577 29.2008 30.2734L29.2464 30.2344C28.8787 29.8038 28.3801 29.5891 27.7539 29.5891V29.6491ZM29.2536 30.2539V27.5H29.1936V30.2539H29.2536ZM29.2236 27.53H30.127V27.47H29.2236V27.53ZM30.097 27.5V35H30.157V27.5H30.097ZM30.127 34.97H29.2969V35.03H30.127V34.97ZM29.3268 34.9977L29.2828 34.4313L29.223 34.4359L29.267 35.0023L29.3268 34.9977ZM29.2297 34.4146C28.8748 34.8494 28.381 35.0677 27.7441 35.0677V35.1277C28.3964 35.1277 28.9084 34.9032 29.2762 34.4526L29.2297 34.4146ZM27.7441 35.0677C27.1418 35.0677 26.6508 34.8216 26.2689 34.3274L26.2214 34.364C26.6142 34.8724 27.1225 35.1277 27.7441 35.1277V35.0677ZM26.2689 34.3275C25.8898 33.8327 25.6989 33.1854 25.6989 32.3828H25.6389C25.6389 33.1948 25.8322 33.8561 26.2213 34.3639L26.2689 34.3275ZM25.6989 32.3828V32.3145H25.6389V32.3828H25.6989ZM26.5423 32.417C26.5423 33.0197 26.6667 33.4955 26.9191 33.8409L26.9676 33.8055C26.7252 33.4739 26.6023 33.0122 26.6023 32.417H26.5423ZM26.9191 33.8409C27.1724 34.1876 27.5234 34.3611 27.9688 34.3611V34.3011C27.5417 34.3011 27.2091 34.136 26.9676 33.8055L26.9191 33.8409ZM27.9688 34.3611C28.2598 34.3611 28.5133 34.2957 28.7279 34.1637C28.9425 34.0318 29.1164 33.8344 29.2503 33.5733L29.1969 33.5459C29.0672 33.799 28.9001 33.9874 28.6964 34.1126C28.4928 34.2378 28.2506 34.3011 27.9688 34.3011V34.3611ZM29.2536 33.5596V31.1328H29.1936V33.5596H29.2536ZM29.25 31.1185C29.1128 30.8656 28.938 30.6745 28.7252 30.5468C28.5123 30.4191 28.263 30.3557 27.9785 30.3557V30.4157C28.2539 30.4157 28.4921 30.4769 28.6943 30.5982C28.8965 30.7195 29.0643 30.902 29.1973 31.1471L29.25 31.1185ZM27.9785 30.3557C27.5267 30.3557 27.1724 30.5308 26.9191 30.8808L26.9677 30.916C27.2091 30.5825 27.5449 30.4157 27.9785 30.4157V30.3557ZM26.9191 30.8808C26.6664 31.23 26.5423 31.7435 26.5423 32.417H26.6023C26.6023 31.7493 26.7256 31.2505 26.9677 30.916L26.9191 30.8808ZM34.7949 35L34.7681 35.0134L34.7764 35.03H34.7949V35ZM34.668 34.4434L34.6977 34.4397L34.6901 34.3771L34.6464 34.4226L34.668 34.4434ZM31.8799 34.6582L31.8599 34.6806L31.8601 34.6808L31.8799 34.6582ZM32.0068 32.2559L32.0245 32.2801L32.0245 32.2801L32.0068 32.2559ZM34.6533 31.7969V31.8269H34.6833V31.7969H34.6533ZM34.3701 30.6299L34.3489 30.6511L34.3491 30.6513L34.3701 30.6299ZM32.3975 31.1816V31.2116H32.4275V31.1816H32.3975ZM31.4893 31.1816H31.4593V31.2116H31.4893V31.1816ZM31.7676 30.4199L31.7437 30.4017L31.7437 30.4018L31.7676 30.4199ZM32.5293 29.834L32.5171 29.8066L32.517 29.8066L32.5293 29.834ZM35.0195 30.0781L34.9996 30.1006L34.9997 30.1007L35.0195 30.0781ZM35.5566 31.333H35.5866L35.5866 31.3323L35.5566 31.333ZM35.7422 34.9219H35.7749L35.7697 34.91L35.7422 34.9219ZM35.7422 35V35.03H35.7722V35H35.7422ZM34.6533 33.5205L34.6833 33.5351V33.5205H34.6533ZM34.6533 32.4365H34.6833V32.4065H34.6533V32.4365ZM34.8218 34.9866C34.7722 34.8875 34.7303 34.7065 34.6977 34.4397L34.6382 34.447C34.6708 34.714 34.7135 34.9042 34.7681 35.0134L34.8218 34.9866ZM34.6464 34.4226C34.2318 34.8531 33.7382 35.0677 33.1641 35.0677V35.1277C33.7553 35.1277 34.2643 34.906 34.6896 34.4642L34.6464 34.4226ZM33.1641 35.0677C32.6492 35.0677 32.2285 34.923 31.8996 34.6356L31.8601 34.6808C32.2018 34.9793 32.6373 35.1277 33.1641 35.1277V35.0677ZM31.8999 34.6358C31.5743 34.3454 31.4118 33.9792 31.4118 33.5352H31.3518C31.3518 33.996 31.5214 34.3786 31.8599 34.6806L31.8999 34.6358ZM31.4118 33.5352C31.4118 32.9939 31.6162 32.5768 32.0245 32.2801L31.9892 32.2316C31.5642 32.5404 31.3518 32.9762 31.3518 33.5352H31.4118ZM32.0245 32.2801C32.4374 31.9792 33.0195 31.8269 33.7744 31.8269V31.7669C33.0124 31.7669 32.4161 31.9205 31.9892 32.2316L32.0245 32.2801ZM33.7744 31.8269H34.6533V31.7669H33.7744V31.8269ZM34.6833 31.7969V31.3818H34.6233V31.7969H34.6833ZM34.6833 31.3818C34.6833 31.0597 34.5868 30.8007 34.3911 30.6085L34.3491 30.6513C34.5311 30.8301 34.6233 31.0725 34.6233 31.3818H34.6833ZM34.3913 30.6087C34.1951 30.4124 33.9079 30.3167 33.5352 30.3167V30.3767C33.8981 30.3767 34.1676 30.4698 34.3489 30.6511L34.3913 30.6087ZM33.5352 30.3167C33.2077 30.3167 32.9309 30.3995 32.7067 30.5668L32.7426 30.6149C32.9546 30.4566 33.2181 30.3767 33.5352 30.3767V30.3167ZM32.7067 30.5668C32.4825 30.7341 32.3675 30.9393 32.3675 31.1816H32.4275C32.4275 30.9617 32.5305 30.7731 32.7426 30.6149L32.7067 30.5668ZM32.3975 31.1516H31.4893V31.2116H32.3975V31.1516ZM31.5193 31.1816C31.5193 30.9256 31.6092 30.6779 31.7915 30.4381L31.7437 30.4018C31.5549 30.6502 31.4593 30.9104 31.4593 31.1816H31.5193ZM31.7914 30.4381C31.9768 30.1952 32.2266 30.0028 32.5416 29.8614L32.517 29.8066C32.194 29.9516 31.9359 30.1499 31.7437 30.4017L31.7914 30.4381ZM32.5415 29.8614C32.8596 29.72 33.2086 29.6491 33.5889 29.6491V29.5891C33.2009 29.5891 32.8435 29.6615 32.5171 29.8066L32.5415 29.8614ZM33.5889 29.6491C34.1926 29.6491 34.6616 29.8008 34.9996 30.1006L35.0394 30.0557C34.6873 29.7434 34.2025 29.5891 33.5889 29.5891V29.6491ZM34.9997 30.1007C35.3375 30.397 35.5138 30.8068 35.5266 31.3337L35.5866 31.3323C35.5734 30.7915 35.3917 30.3648 35.0393 30.0556L34.9997 30.1007ZM35.5266 31.333V33.7646H35.5866V31.333H35.5266ZM35.5266 33.7646C35.5266 34.2517 35.5887 34.6421 35.7146 34.9338L35.7697 34.91C35.6483 34.6288 35.5866 34.2476 35.5866 33.7646H35.5266ZM35.7122 34.9219V35H35.7722V34.9219H35.7122ZM35.7422 34.97H34.7949V35.03H35.7422V34.97ZM33.2959 34.3415C33.5846 34.3415 33.8583 34.2668 34.1166 34.1178L34.0866 34.0658C33.8371 34.2098 33.5736 34.2815 33.2959 34.2815V34.3415ZM34.1166 34.1178C34.375 33.9687 34.5634 33.774 34.6803 33.5336L34.6263 33.5074C34.5153 33.7357 34.336 33.9219 34.0866 34.0658L34.1166 34.1178ZM34.6833 33.5205V32.4365H34.6233V33.5205H34.6833ZM34.6533 32.4065H33.9453V32.4665H34.6533V32.4065ZM33.9453 32.4065C33.39 32.4065 32.9686 32.4876 32.685 32.6536C32.399 32.8209 32.2552 33.0738 32.2552 33.4082H32.3152C32.3152 33.0948 32.448 32.8618 32.7153 32.7053C32.9852 32.5474 33.3939 32.4665 33.9453 32.4665V32.4065ZM32.2552 33.4082C32.2552 33.6988 32.3524 33.9291 32.549 34.0952L32.5877 34.0493C32.4067 33.8964 32.3152 33.684 32.3152 33.4082H32.2552ZM32.549 34.0952C32.7442 34.2601 32.9941 34.3415 33.2959 34.3415V34.2815C33.0053 34.2815 32.7701 34.2034 32.5877 34.0493L32.549 34.0952ZM39.5264 30.5273L39.5214 30.5569L39.5564 30.5628V30.5273H39.5264ZM37.876 31.25L37.846 31.2374V31.25H37.876ZM37.876 35V35.03H37.906V35H37.876ZM36.9727 35H36.9427V35.03H36.9727V35ZM36.9727 29.7168V29.6868H36.9427V29.7168H36.9727ZM37.8516 29.7168L37.8816 29.7161L37.8809 29.6868H37.8516V29.7168ZM37.8662 30.3271L37.8362 30.3279L37.8386 30.4276L37.8916 30.3431L37.8662 30.3271ZM39.5264 29.6875H39.5564V29.669L39.5398 29.6607L39.5264 29.6875ZM39.5313 30.4978C39.3927 30.4747 39.2429 30.4632 39.082 30.4632V30.5232C39.2401 30.5232 39.3866 30.5345 39.5214 30.5569L39.5313 30.4978ZM39.082 30.4632C38.7816 30.4632 38.5271 30.5272 38.3202 30.657C38.1132 30.7869 37.9561 30.9813 37.8483 31.2384L37.9036 31.2616C38.0074 31.0141 38.1571 30.8302 38.3521 30.7078C38.5473 30.5853 38.7901 30.5232 39.082 30.5232V30.4632ZM37.846 31.25V35H37.906V31.25H37.846ZM37.876 34.97H36.9727V35.03H37.876V34.97ZM37.0027 35V29.7168H36.9427V35H37.0027ZM36.9727 29.7468H37.8516V29.6868H36.9727V29.7468ZM37.8216 29.7175L37.8362 30.3279L37.8962 30.3264L37.8816 29.7161L37.8216 29.7175ZM37.8916 30.3431C38.1825 29.8796 38.593 29.6491 39.126 29.6491V29.5891C38.5717 29.5891 38.1423 29.8307 37.8408 30.3112L37.8916 30.3431ZM39.126 29.6491C39.3 29.6491 39.428 29.6718 39.513 29.7143L39.5398 29.6607C39.4425 29.612 39.3035 29.5891 39.126 29.5891V29.6491ZM39.4964 29.6875V30.5273H39.5564V29.6875H39.4964Z" fill="#141414"/>
</g>
</svg>
