<svg width="24" height="34" viewBox="0 0 24 34" fill="none" xmlns="http://www.w3.org/2000/svg">
<path d="M12.02 2C6.21 2 2 6.74712 2 12.015C2 13.6975 2.49 15.4301 3.35 17.0125C3.51 17.2729 3.53 17.6034 3.42 17.9139L2.75 20.1572C2.6 20.698 3.06 21.0986 3.57 20.9384L5.59 20.3375C6.14 20.1572 6.57 20.3876 7.08 20.698C8.54 21.5593 10.36 22 12 22C16.96 22 22 18.1642 22 11.985C22 6.65699 17.7 2 12.02 2" fill="#6264A7"/>
<line x1="8.6" y1="10.4" x2="15.4" y2="10.4" stroke="white" stroke-width="1.2" stroke-linecap="round"/>
<line x1="8.55" y1="14.45" x2="12.45" y2="14.45" stroke="white" stroke-width="1.1" stroke-linecap="round"/>
<g opacity="0.65">
<path d="M7.84375 30.1953C7.77344 30.7969 7.55078 31.2617 7.17578 31.5898C6.80339 31.9154 6.30729 32.0781 5.6875 32.0781C5.01562 32.0781 4.47656 31.8372 4.07031 31.3555C3.66667 30.8737 3.46484 30.2292 3.46484 29.4219V28.875C3.46484 28.3464 3.55859 27.8815 3.74609 27.4805C3.9362 27.0794 4.20443 26.7721 4.55078 26.5586C4.89714 26.3424 5.29818 26.2344 5.75391 26.2344C6.35807 26.2344 6.84245 26.4036 7.20703 26.7422C7.57161 27.0781 7.78385 27.5443 7.84375 28.1406H7.08984C7.02474 27.6875 6.88281 27.3594 6.66406 27.1562C6.44792 26.9531 6.14453 26.8516 5.75391 26.8516C5.27474 26.8516 4.89844 27.0286 4.625 27.3828C4.35417 27.737 4.21875 28.2409 4.21875 28.8945V29.4453C4.21875 30.0625 4.34766 30.5534 4.60547 30.918C4.86328 31.2826 5.22396 31.4648 5.6875 31.4648C6.10417 31.4648 6.42318 31.3711 6.64453 31.1836C6.86849 30.9935 7.01693 30.6641 7.08984 30.1953H7.84375ZM9.48047 28.2852C9.80078 27.8919 10.2174 27.6953 10.7305 27.6953C11.6237 27.6953 12.0742 28.1992 12.082 29.207V32H11.3594V29.2031C11.3568 28.8984 11.2865 28.6732 11.1484 28.5273C11.013 28.3815 10.8008 28.3086 10.5117 28.3086C10.2773 28.3086 10.0716 28.3711 9.89453 28.4961C9.71745 28.6211 9.57943 28.7852 9.48047 28.9883V32H8.75781V26H9.48047V28.2852ZM15.7734 32C15.7318 31.9167 15.6979 31.7682 15.6719 31.5547C15.3359 31.9036 14.9349 32.0781 14.4688 32.0781C14.0521 32.0781 13.7096 31.9609 13.4414 31.7266C13.1758 31.4896 13.043 31.1901 13.043 30.8281C13.043 30.388 13.2096 30.0469 13.543 29.8047C13.8789 29.5599 14.3503 29.4375 14.957 29.4375H15.6602V29.1055C15.6602 28.8529 15.5846 28.6523 15.4336 28.5039C15.2826 28.3529 15.0599 28.2773 14.7656 28.2773C14.5078 28.2773 14.2917 28.3424 14.1172 28.4727C13.9427 28.6029 13.8555 28.7604 13.8555 28.9453H13.1289C13.1289 28.7344 13.2031 28.5312 13.3516 28.3359C13.5026 28.138 13.7057 27.9818 13.9609 27.8672C14.2188 27.7526 14.5013 27.6953 14.8086 27.6953C15.2956 27.6953 15.6771 27.8177 15.9531 28.0625C16.2292 28.3047 16.3724 28.6393 16.3828 29.0664V31.0117C16.3828 31.3997 16.4323 31.7083 16.5312 31.9375V32H15.7734ZM14.5742 31.4492C14.8008 31.4492 15.0156 31.3906 15.2188 31.2734C15.4219 31.1562 15.569 31.0039 15.6602 30.8164V29.9492H15.0938C14.2083 29.9492 13.7656 30.2083 13.7656 30.7266C13.7656 30.9531 13.8411 31.1302 13.9922 31.2578C14.1432 31.3854 14.3372 31.4492 14.5742 31.4492ZM18.4961 26.75V27.7734H19.2852V28.332H18.4961V30.9531C18.4961 31.1224 18.5312 31.25 18.6016 31.3359C18.6719 31.4193 18.7917 31.4609 18.9609 31.4609C19.0443 31.4609 19.1589 31.4453 19.3047 31.4141V32C19.1146 32.0521 18.9297 32.0781 18.75 32.0781C18.4271 32.0781 18.1836 31.9805 18.0195 31.7852C17.8555 31.5898 17.7734 31.3125 17.7734 30.9531V28.332H17.0039V27.7734H17.7734V26.75H18.4961Z" fill="#171942"/>
<path d="M7.84375 30.1953L7.87355 30.1988L7.87746 30.1653H7.84375V30.1953ZM7.17578 31.5898L7.19553 31.6124L7.19554 31.6124L7.17578 31.5898ZM4.07031 31.3555L4.04732 31.3747L4.04738 31.3748L4.07031 31.3555ZM3.74609 27.4805L3.71898 27.4676L3.71892 27.4678L3.74609 27.4805ZM4.55078 26.5586L4.56653 26.5841L4.56666 26.584L4.55078 26.5586ZM7.20703 26.7422L7.18662 26.7642L7.1867 26.7642L7.20703 26.7422ZM7.84375 28.1406V28.1706H7.87691L7.8736 28.1376L7.84375 28.1406ZM7.08984 28.1406L7.06015 28.1449L7.06385 28.1706H7.08984V28.1406ZM6.66406 27.1562L6.64352 27.1781L6.64365 27.1782L6.66406 27.1562ZM4.625 27.3828L4.60125 27.3645L4.60117 27.3646L4.625 27.3828ZM6.64453 31.1836L6.66392 31.2065L6.66395 31.2065L6.64453 31.1836ZM7.08984 30.1953V30.1653H7.06415L7.0602 30.1907L7.08984 30.1953ZM7.81395 30.1918C7.74431 30.7877 7.52428 31.245 7.15603 31.5673L7.19554 31.6124C7.57729 31.2784 7.80257 30.8061 7.87355 30.1988L7.81395 30.1918ZM7.15604 31.5673C6.79039 31.8869 6.30193 32.0481 5.6875 32.0481V32.1081C6.31265 32.1081 6.81638 31.9438 7.19553 31.6124L7.15604 31.5673ZM5.6875 32.0481C5.0238 32.0481 4.49338 31.8106 4.09325 31.3361L4.04738 31.3748C4.45974 31.8638 5.00745 32.1081 5.6875 32.1081V32.0481ZM4.09331 31.3362C3.69535 30.8612 3.49484 30.2242 3.49484 29.4219H3.43484C3.43484 30.2342 3.63799 30.8862 4.04732 31.3747L4.09331 31.3362ZM3.49484 29.4219V28.875H3.43484V29.4219H3.49484ZM3.49484 28.875C3.49484 28.3499 3.58796 27.8895 3.77327 27.4932L3.71892 27.4678C3.52923 27.8735 3.43484 28.3428 3.43484 28.875H3.49484ZM3.7732 27.4933C3.96106 27.097 4.22555 26.7944 4.56653 26.5841L4.53504 26.5331C4.1833 26.7499 3.91134 27.0618 3.71899 27.4676L3.7732 27.4933ZM4.56666 26.584C4.90771 26.3712 5.30312 26.2644 5.75391 26.2644V26.2044C5.29323 26.2044 4.88656 26.3137 4.5349 26.5331L4.56666 26.584ZM5.75391 26.2644C6.35221 26.2644 6.82872 26.4318 7.18662 26.7642L7.22744 26.7202C6.85617 26.3755 6.36393 26.2044 5.75391 26.2044V26.2644ZM7.1867 26.7642C7.54481 27.0942 7.75458 27.553 7.8139 28.1436L7.8736 28.1376C7.81313 27.5356 7.59842 27.062 7.22736 26.7201L7.1867 26.7642ZM7.84375 28.1106H7.08984V28.1706H7.84375V28.1106ZM7.11954 28.1364C7.05395 27.6799 6.91032 27.344 6.68448 27.1343L6.64365 27.1782C6.8553 27.3748 6.99553 27.6951 7.06015 28.1449L7.11954 28.1364ZM6.68461 27.1344C6.46132 26.9246 6.14968 26.8216 5.75391 26.8216V26.8816C6.13938 26.8816 6.43452 26.9817 6.64352 27.1781L6.68461 27.1344ZM5.75391 26.8216C5.26621 26.8216 4.88082 27.0024 4.60125 27.3645L4.64875 27.4011C4.91605 27.0549 5.28327 26.8816 5.75391 26.8816V26.8216ZM4.60117 27.3646C4.32485 27.7259 4.18875 28.2372 4.18875 28.8945H4.24875C4.24875 28.2445 4.38348 27.748 4.64883 27.401L4.60117 27.3646ZM4.18875 28.8945V29.4453H4.24875V28.8945H4.18875ZM4.18875 29.4453C4.18875 30.0664 4.31844 30.564 4.58097 30.9353L4.62996 30.9006C4.37687 30.5427 4.24875 30.0586 4.24875 29.4453H4.18875ZM4.58097 30.9353C4.84466 31.3082 5.21466 31.4948 5.6875 31.4948V31.4348C5.23326 31.4348 4.8819 31.2569 4.62996 30.9006L4.58097 30.9353ZM5.6875 31.4948C6.10823 31.4948 6.43521 31.4002 6.66392 31.2065L6.62514 31.1607C6.41114 31.342 6.10011 31.4348 5.6875 31.4348V31.4948ZM6.66395 31.2065C6.8959 31.0096 7.0461 30.6717 7.11949 30.1999L7.0602 30.1907C6.98775 30.6564 6.84108 30.9774 6.62512 31.1607L6.66395 31.2065ZM7.08984 30.2253H7.84375V30.1653H7.08984V30.2253ZM9.48047 28.2852H9.45047V28.3695L9.50373 28.3041L9.48047 28.2852ZM12.082 29.207H12.112L12.112 29.2068L12.082 29.207ZM12.082 32V32.03H12.112V32H12.082ZM11.3594 32H11.3294V32.03H11.3594V32ZM11.3594 29.2031H11.3894L11.3894 29.2029L11.3594 29.2031ZM11.1484 28.5273L11.1265 28.5478L11.1266 28.548L11.1484 28.5273ZM9.48047 28.9883L9.45047 28.9737V28.9883H9.48047ZM9.48047 32V32.03H9.51047V32H9.48047ZM8.75781 32H8.72781V32.03H8.75781V32ZM8.75781 26V25.97H8.72781V26H8.75781ZM9.48047 26H9.51047V25.97H9.48047V26ZM9.50373 28.3041C9.81827 27.918 10.2263 27.7253 10.7305 27.7253V27.6653C10.2085 27.6653 9.78329 27.8659 9.45721 28.2662L9.50373 28.3041ZM10.7305 27.7253C11.1714 27.7253 11.498 27.8495 11.7159 28.0932C11.9344 28.3376 12.0482 28.7072 12.052 29.2073L12.112 29.2068C12.1081 28.6991 11.9927 28.3128 11.7606 28.0532C11.528 27.793 11.1827 27.6653 10.7305 27.6653V27.7253ZM12.052 29.207V32H12.112V29.207H12.052ZM12.082 31.97H11.3594V32.03H12.082V31.97ZM11.3894 32V29.2031H11.3294V32H11.3894ZM11.3894 29.2029C11.3867 28.8944 11.3156 28.6603 11.1702 28.5067L11.1266 28.548C11.2573 28.686 11.3268 28.9025 11.3294 29.2034L11.3894 29.2029ZM11.1704 28.5069C11.0272 28.3527 10.8053 28.2786 10.5117 28.2786V28.3386C10.7963 28.3386 10.9989 28.4104 11.1265 28.5478L11.1704 28.5069ZM10.5117 28.2786C10.2717 28.2786 10.0598 28.3427 9.87723 28.4716L9.91183 28.5206C10.0834 28.3995 10.283 28.3386 10.5117 28.3386V28.2786ZM9.87723 28.4716C9.69584 28.5996 9.55457 28.7677 9.4535 28.9751L9.50744 29.0014C9.60428 28.8026 9.73906 28.6426 9.91183 28.5206L9.87723 28.4716ZM9.45047 28.9883V32H9.51047V28.9883H9.45047ZM9.48047 31.97H8.75781V32.03H9.48047V31.97ZM8.78781 32V26H8.72781V32H8.78781ZM8.75781 26.03H9.48047V25.97H8.75781V26.03ZM9.45047 26V28.2852H9.51047V26H9.45047ZM15.7734 32L15.7466 32.0134L15.7549 32.03H15.7734V32ZM15.6719 31.5547L15.7017 31.5511L15.694 31.4884L15.6503 31.5339L15.6719 31.5547ZM13.4414 31.7266L13.4214 31.7489L13.4217 31.7492L13.4414 31.7266ZM13.543 29.8047L13.5606 29.829L13.5606 29.8289L13.543 29.8047ZM15.6602 29.4375V29.4675H15.6902V29.4375H15.6602ZM15.4336 28.5039L15.4124 28.5251L15.4126 28.5253L15.4336 28.5039ZM13.8555 28.9453V28.9753H13.8855V28.9453H13.8555ZM13.1289 28.9453H13.0989V28.9753H13.1289V28.9453ZM13.3516 28.3359L13.3277 28.3177L13.3277 28.3178L13.3516 28.3359ZM13.9609 27.8672L13.9488 27.8398L13.9486 27.8398L13.9609 27.8672ZM15.9531 28.0625L15.9332 28.0849L15.9333 28.0851L15.9531 28.0625ZM16.3828 29.0664H16.4128L16.4128 29.0657L16.3828 29.0664ZM16.5312 31.9375H16.5639L16.5588 31.9256L16.5312 31.9375ZM16.5312 32V32.03H16.5612V32H16.5312ZM15.6602 30.8164L15.6902 30.831V30.8164H15.6602ZM15.6602 29.9492H15.6902V29.9192H15.6602V29.9492ZM15.8003 31.9866C15.7611 31.9083 15.7277 31.7645 15.7017 31.5511L15.6421 31.5583C15.6682 31.772 15.7024 31.925 15.7466 32.0134L15.8003 31.9866ZM15.6503 31.5339C15.3197 31.8772 14.9264 32.0481 14.4688 32.0481V32.1081C14.9434 32.1081 15.3521 31.9301 15.6935 31.5755L15.6503 31.5339ZM14.4688 32.0481C14.058 32.0481 13.723 31.9328 13.4611 31.704L13.4217 31.7492C13.6963 31.9891 14.0461 32.1081 14.4688 32.1081V32.0481ZM13.4614 31.7042C13.2023 31.473 13.073 31.1817 13.073 30.8281H13.013C13.013 31.1985 13.1493 31.5062 13.4214 31.7489L13.4614 31.7042ZM13.073 30.8281C13.073 30.3969 13.2356 30.0651 13.5606 29.829L13.5253 29.7804C13.1836 30.0287 13.013 30.3792 13.013 30.8281H13.073ZM13.5606 29.8289C13.8896 29.5892 14.3538 29.4675 14.957 29.4675V29.4075C14.3467 29.4075 13.8682 29.5305 13.5253 29.7804L13.5606 29.8289ZM14.957 29.4675H15.6602V29.4075H14.957V29.4675ZM15.6902 29.4375V29.1055H15.6302V29.4375H15.6902ZM15.6902 29.1055C15.6902 28.8465 15.6125 28.6377 15.4546 28.4825L15.4126 28.5253C15.5568 28.667 15.6302 28.8592 15.6302 29.1055H15.6902ZM15.4548 28.4827C15.2963 28.3242 15.0648 28.2473 14.7656 28.2473V28.3073C15.055 28.3073 15.2688 28.3816 15.4124 28.5251L15.4548 28.4827ZM14.7656 28.2473C14.5026 28.2473 14.2798 28.3139 14.0992 28.4486L14.1351 28.4967C14.3035 28.371 14.513 28.3073 14.7656 28.3073V28.2473ZM14.0992 28.4486C13.9187 28.5833 13.8255 28.7492 13.8255 28.9453H13.8855C13.8855 28.7716 13.9667 28.6224 14.1351 28.4967L14.0992 28.4486ZM13.8555 28.9153H13.1289V28.9753H13.8555V28.9153ZM13.1589 28.9453C13.1589 28.742 13.2303 28.5451 13.3754 28.3541L13.3277 28.3178C13.1759 28.5174 13.0989 28.7268 13.0989 28.9453H13.1589ZM13.3754 28.3541C13.5231 28.1607 13.722 28.0073 13.9732 27.8946L13.9486 27.8398C13.6895 27.9562 13.4821 28.1154 13.3277 28.3177L13.3754 28.3541ZM13.9731 27.8946C14.2268 27.7819 14.5051 27.7253 14.8086 27.7253V27.6653C14.4975 27.6653 14.2107 27.7233 13.9488 27.8398L13.9731 27.8946ZM14.8086 27.7253C15.2906 27.7253 15.6642 27.8464 15.9332 28.0849L15.973 28.0401C15.6899 27.789 15.3005 27.6653 14.8086 27.6653V27.7253ZM15.9333 28.0851C16.202 28.3208 16.3426 28.6469 16.3528 29.0671L16.4128 29.0657C16.4022 28.6317 16.2563 28.2886 15.9729 28.0399L15.9333 28.0851ZM16.3528 29.0664V31.0117H16.4128V29.0664H16.3528ZM16.3528 31.0117C16.3528 31.4018 16.4025 31.715 16.5037 31.9494L16.5588 31.9256C16.4621 31.7017 16.4128 31.3977 16.4128 31.0117H16.3528ZM16.5013 31.9375V32H16.5612V31.9375H16.5013ZM16.5312 31.97H15.7734V32.03H16.5312V31.97ZM14.5742 31.4792C14.8062 31.4792 15.0262 31.4191 15.2337 31.2994L15.2038 31.2475C15.005 31.3621 14.7953 31.4192 14.5742 31.4192V31.4792ZM15.2337 31.2994C15.4414 31.1796 15.5931 31.0231 15.6871 30.8295L15.6332 30.8033C15.545 30.9847 15.4024 31.1329 15.2038 31.2475L15.2337 31.2994ZM15.6902 30.8164V29.9492H15.6302V30.8164H15.6902ZM15.6602 29.9192H15.0938V29.9792H15.6602V29.9192ZM15.0938 29.9192C14.6491 29.9192 14.3107 29.9841 14.0825 30.1177C13.8518 30.2527 13.7356 30.4569 13.7356 30.7266H13.7956C13.7956 30.478 13.9008 30.2936 14.1128 30.1694C14.3273 30.0439 14.653 29.9792 15.0938 29.9792V29.9192ZM13.7356 30.7266C13.7356 30.9605 13.814 31.1466 13.9728 31.2807L14.0115 31.2349C13.8683 31.1139 13.7956 30.9457 13.7956 30.7266H13.7356ZM13.9728 31.2807C14.1303 31.4138 14.3316 31.4792 14.5742 31.4792V31.4192C14.3429 31.4192 14.1561 31.3571 14.0115 31.2349L13.9728 31.2807ZM18.4961 26.75H18.5261V26.72H18.4961V26.75ZM18.4961 27.7734H18.4661V27.8034H18.4961V27.7734ZM19.2852 27.7734H19.3152V27.7434H19.2852V27.7734ZM19.2852 28.332V28.362H19.3152V28.332H19.2852ZM18.4961 28.332V28.302H18.4661V28.332H18.4961ZM18.6016 31.3359L18.5783 31.3549L18.5786 31.3553L18.6016 31.3359ZM19.3047 31.4141H19.3347V31.377L19.2984 31.3847L19.3047 31.4141ZM19.3047 32L19.3126 32.0289L19.3347 32.0229V32H19.3047ZM17.7734 28.332H17.8034V28.302H17.7734V28.332ZM17.0039 28.332H16.9739V28.362H17.0039V28.332ZM17.0039 27.7734V27.7434H16.9739V27.7734H17.0039ZM17.7734 27.7734V27.8034H17.8034V27.7734H17.7734ZM17.7734 26.75V26.72H17.7434V26.75H17.7734ZM18.4661 26.75V27.7734H18.5261V26.75H18.4661ZM18.4961 27.8034H19.2852V27.7434H18.4961V27.8034ZM19.2552 27.7734V28.332H19.3152V27.7734H19.2552ZM19.2852 28.302H18.4961V28.362H19.2852V28.302ZM18.4661 28.332V30.9531H18.5261V28.332H18.4661ZM18.4661 30.9531C18.4661 31.1259 18.5019 31.2615 18.5783 31.3549L18.6248 31.3169C18.5606 31.2385 18.5261 31.1189 18.5261 30.9531H18.4661ZM18.5786 31.3553C18.6572 31.4484 18.7877 31.4909 18.9609 31.4909V31.4309C18.7956 31.4309 18.6866 31.3902 18.6245 31.3166L18.5786 31.3553ZM18.9609 31.4909C19.0474 31.4909 19.1644 31.4748 19.311 31.4434L19.2984 31.3847C19.1533 31.4158 19.0411 31.4309 18.9609 31.4309V31.4909ZM19.2747 31.4141V32H19.3347V31.4141H19.2747ZM19.2968 31.9711C19.109 32.0225 18.9268 32.0481 18.75 32.0481V32.1081C18.9326 32.1081 19.1202 32.0817 19.3126 32.0289L19.2968 31.9711ZM18.75 32.0481C18.4334 32.0481 18.1994 31.9526 18.0425 31.7659L17.9966 31.8045C18.1678 32.0083 18.4208 32.1081 18.75 32.1081V32.0481ZM18.0425 31.7659C17.8845 31.5778 17.8034 31.3083 17.8034 30.9531H17.7434C17.7434 31.3167 17.8264 31.6019 17.9966 31.8045L18.0425 31.7659ZM17.8034 30.9531V28.332H17.7434V30.9531H17.8034ZM17.7734 28.302H17.0039V28.362H17.7734V28.302ZM17.0339 28.332V27.7734H16.9739V28.332H17.0339ZM17.0039 27.8034H17.7734V27.7434H17.0039V27.8034ZM17.8034 27.7734V26.75H17.7434V27.7734H17.8034ZM17.7734 26.78H18.4961V26.72H17.7734V26.78Z" fill="#0007FF"/>
</g>
</svg>
