<svg width="24" height="34" viewBox="0 0 24 34" fill="none" xmlns="http://www.w3.org/2000/svg">
<line x1="8.6" y1="10.4" x2="15.4" y2="10.4" stroke="#6F6F6F" stroke-width="1.2" stroke-linecap="round"/>
<line x1="8.55" y1="14.45" x2="12.45" y2="14.45" stroke="#6F6F6F" stroke-width="1.1" stroke-linecap="round"/>
<mask id="mask0" mask-type="alpha" maskUnits="userSpaceOnUse" x="1" y="1" width="22" height="22">
<path fill-rule="evenodd" clip-rule="evenodd" d="M1 1.00024H22.493V22.494H1V1.00024Z" fill="white"/>
</mask>
<g mask="url(#mask0)">
<path fill-rule="evenodd" clip-rule="evenodd" d="M6.10844 19.6752C6.68844 19.6752 7.23544 19.8952 7.81444 20.1282C11.3614 21.7682 15.5564 21.0222 18.2894 18.2902C21.8954 14.6822 21.8954 8.81324 18.2894 5.20724C16.5434 3.46124 14.2214 2.50024 11.7494 2.50024C9.27644 2.50024 6.95344 3.46224 5.20844 5.20824C2.47444 7.94024 1.73044 12.1352 3.35544 15.6482C3.58944 16.2272 3.81544 16.7912 3.81544 17.3772C3.81544 17.9622 3.61444 18.5512 3.43744 19.0712C3.29144 19.4992 3.07044 20.1452 3.21244 20.2872C3.35144 20.4312 4.00144 20.2042 4.43044 20.0572C4.94544 19.8812 5.52944 19.6792 6.10844 19.6752V19.6752ZM11.7244 22.4942C10.1964 22.4942 8.65844 22.1712 7.21944 21.5052C6.79544 21.3352 6.39844 21.1752 6.11344 21.1752C5.78544 21.1772 5.34444 21.3292 4.91844 21.4762C4.04444 21.7762 2.95644 22.1502 2.15144 21.3482C1.34944 20.5452 1.71944 19.4602 2.01744 18.5872C2.16444 18.1572 2.31544 17.7132 2.31544 17.3772C2.31544 17.1012 2.18244 16.7492 1.97844 16.2422C0.105437 12.1972 0.971437 7.32224 4.14844 4.14724C6.17644 2.11824 8.87544 1.00024 11.7484 1.00024C14.6214 1.00024 17.3214 2.11724 19.3494 4.14624C23.5414 8.33824 23.5414 15.1582 19.3494 19.3502C17.2944 21.4062 14.5274 22.4942 11.7244 22.4942V22.4942Z" fill="#6F6F6F"/>
</g>
<g opacity="0.65">
<path d="M8.84375 30.1953C8.77344 30.7969 8.55078 31.2617 8.17578 31.5898C7.80339 31.9154 7.30729 32.0781 6.6875 32.0781C6.01562 32.0781 5.47656 31.8372 5.07031 31.3555C4.66667 30.8737 4.46484 30.2292 4.46484 29.4219V28.875C4.46484 28.3464 4.55859 27.8815 4.74609 27.4805C4.9362 27.0794 5.20443 26.7721 5.55078 26.5586C5.89714 26.3424 6.29818 26.2344 6.75391 26.2344C7.35807 26.2344 7.84245 26.4036 8.20703 26.7422C8.57161 27.0781 8.78385 27.5443 8.84375 28.1406H8.08984C8.02474 27.6875 7.88281 27.3594 7.66406 27.1562C7.44792 26.9531 7.14453 26.8516 6.75391 26.8516C6.27474 26.8516 5.89844 27.0286 5.625 27.3828C5.35417 27.737 5.21875 28.2409 5.21875 28.8945V29.4453C5.21875 30.0625 5.34766 30.5534 5.60547 30.918C5.86328 31.2826 6.22396 31.4648 6.6875 31.4648C7.10417 31.4648 7.42318 31.3711 7.64453 31.1836C7.86849 30.9935 8.01693 30.6641 8.08984 30.1953H8.84375ZM10.4805 28.2852C10.8008 27.8919 11.2174 27.6953 11.7305 27.6953C12.6237 27.6953 13.0742 28.1992 13.082 29.207V32H12.3594V29.2031C12.3568 28.8984 12.2865 28.6732 12.1484 28.5273C12.013 28.3815 11.8008 28.3086 11.5117 28.3086C11.2773 28.3086 11.0716 28.3711 10.8945 28.4961C10.7174 28.6211 10.5794 28.7852 10.4805 28.9883V32H9.75781V26H10.4805V28.2852ZM16.7734 32C16.7318 31.9167 16.6979 31.7682 16.6719 31.5547C16.3359 31.9036 15.9349 32.0781 15.4688 32.0781C15.0521 32.0781 14.7096 31.9609 14.4414 31.7266C14.1758 31.4896 14.043 31.1901 14.043 30.8281C14.043 30.388 14.2096 30.0469 14.543 29.8047C14.8789 29.5599 15.3503 29.4375 15.957 29.4375H16.6602V29.1055C16.6602 28.8529 16.5846 28.6523 16.4336 28.5039C16.2826 28.3529 16.0599 28.2773 15.7656 28.2773C15.5078 28.2773 15.2917 28.3424 15.1172 28.4727C14.9427 28.6029 14.8555 28.7604 14.8555 28.9453H14.1289C14.1289 28.7344 14.2031 28.5312 14.3516 28.3359C14.5026 28.138 14.7057 27.9818 14.9609 27.8672C15.2188 27.7526 15.5013 27.6953 15.8086 27.6953C16.2956 27.6953 16.6771 27.8177 16.9531 28.0625C17.2292 28.3047 17.3724 28.6393 17.3828 29.0664V31.0117C17.3828 31.3997 17.4323 31.7083 17.5312 31.9375V32H16.7734ZM15.5742 31.4492C15.8008 31.4492 16.0156 31.3906 16.2188 31.2734C16.4219 31.1562 16.569 31.0039 16.6602 30.8164V29.9492H16.0938C15.2083 29.9492 14.7656 30.2083 14.7656 30.7266C14.7656 30.9531 14.8411 31.1302 14.9922 31.2578C15.1432 31.3854 15.3372 31.4492 15.5742 31.4492ZM19.4961 26.75V27.7734H20.2852V28.332H19.4961V30.9531C19.4961 31.1224 19.5312 31.25 19.6016 31.3359C19.6719 31.4193 19.7917 31.4609 19.9609 31.4609C20.0443 31.4609 20.1589 31.4453 20.3047 31.4141V32C20.1146 32.0521 19.9297 32.0781 19.75 32.0781C19.4271 32.0781 19.1836 31.9805 19.0195 31.7852C18.8555 31.5898 18.7734 31.3125 18.7734 30.9531V28.332H18.0039V27.7734H18.7734V26.75H19.4961Z" fill="#141414"/>
<path d="M8.84375 30.1953L8.87355 30.1988L8.87746 30.1653H8.84375V30.1953ZM8.17578 31.5898L8.19553 31.6124L8.19554 31.6124L8.17578 31.5898ZM5.07031 31.3555L5.04732 31.3747L5.04738 31.3748L5.07031 31.3555ZM4.74609 27.4805L4.71898 27.4676L4.71892 27.4678L4.74609 27.4805ZM5.55078 26.5586L5.56653 26.5841L5.56666 26.584L5.55078 26.5586ZM8.20703 26.7422L8.18662 26.7642L8.1867 26.7642L8.20703 26.7422ZM8.84375 28.1406V28.1706H8.87691L8.8736 28.1376L8.84375 28.1406ZM8.08984 28.1406L8.06015 28.1449L8.06385 28.1706H8.08984V28.1406ZM7.66406 27.1562L7.64352 27.1781L7.64365 27.1782L7.66406 27.1562ZM5.625 27.3828L5.60125 27.3645L5.60117 27.3646L5.625 27.3828ZM7.64453 31.1836L7.66392 31.2065L7.66395 31.2065L7.64453 31.1836ZM8.08984 30.1953V30.1653H8.06415L8.0602 30.1907L8.08984 30.1953ZM8.81395 30.1918C8.74431 30.7877 8.52428 31.245 8.15603 31.5673L8.19554 31.6124C8.57729 31.2784 8.80257 30.8061 8.87355 30.1988L8.81395 30.1918ZM8.15604 31.5673C7.79039 31.8869 7.30193 32.0481 6.6875 32.0481V32.1081C7.31265 32.1081 7.81638 31.9438 8.19553 31.6124L8.15604 31.5673ZM6.6875 32.0481C6.0238 32.0481 5.49338 31.8106 5.09325 31.3361L5.04738 31.3748C5.45974 31.8638 6.00745 32.1081 6.6875 32.1081V32.0481ZM5.09331 31.3362C4.69535 30.8612 4.49484 30.2242 4.49484 29.4219H4.43484C4.43484 30.2342 4.63799 30.8862 5.04732 31.3747L5.09331 31.3362ZM4.49484 29.4219V28.875H4.43484V29.4219H4.49484ZM4.49484 28.875C4.49484 28.3499 4.58796 27.8895 4.77327 27.4932L4.71892 27.4678C4.52923 27.8735 4.43484 28.3428 4.43484 28.875H4.49484ZM4.7732 27.4933C4.96106 27.097 5.22555 26.7944 5.56653 26.5841L5.53504 26.5331C5.1833 26.7499 4.91134 27.0618 4.71899 27.4676L4.7732 27.4933ZM5.56666 26.584C5.90771 26.3712 6.30312 26.2644 6.75391 26.2644V26.2044C6.29323 26.2044 5.88656 26.3137 5.5349 26.5331L5.56666 26.584ZM6.75391 26.2644C7.35221 26.2644 7.82872 26.4318 8.18662 26.7642L8.22744 26.7202C7.85617 26.3755 7.36393 26.2044 6.75391 26.2044V26.2644ZM8.1867 26.7642C8.54481 27.0942 8.75458 27.553 8.8139 28.1436L8.8736 28.1376C8.81313 27.5356 8.59842 27.062 8.22736 26.7201L8.1867 26.7642ZM8.84375 28.1106H8.08984V28.1706H8.84375V28.1106ZM8.11954 28.1364C8.05395 27.6799 7.91032 27.344 7.68448 27.1343L7.64365 27.1782C7.8553 27.3748 7.99553 27.6951 8.06015 28.1449L8.11954 28.1364ZM7.68461 27.1344C7.46132 26.9246 7.14968 26.8216 6.75391 26.8216V26.8816C7.13938 26.8816 7.43452 26.9817 7.64352 27.1781L7.68461 27.1344ZM6.75391 26.8216C6.26621 26.8216 5.88082 27.0024 5.60125 27.3645L5.64875 27.4011C5.91605 27.0549 6.28327 26.8816 6.75391 26.8816V26.8216ZM5.60117 27.3646C5.32485 27.7259 5.18875 28.2372 5.18875 28.8945H5.24875C5.24875 28.2445 5.38348 27.748 5.64883 27.401L5.60117 27.3646ZM5.18875 28.8945V29.4453H5.24875V28.8945H5.18875ZM5.18875 29.4453C5.18875 30.0664 5.31844 30.564 5.58097 30.9353L5.62996 30.9006C5.37687 30.5427 5.24875 30.0586 5.24875 29.4453H5.18875ZM5.58097 30.9353C5.84466 31.3082 6.21466 31.4948 6.6875 31.4948V31.4348C6.23326 31.4348 5.8819 31.2569 5.62996 30.9006L5.58097 30.9353ZM6.6875 31.4948C7.10823 31.4948 7.43521 31.4002 7.66392 31.2065L7.62514 31.1607C7.41114 31.342 7.10011 31.4348 6.6875 31.4348V31.4948ZM7.66395 31.2065C7.8959 31.0096 8.0461 30.6717 8.11949 30.1999L8.0602 30.1907C7.98775 30.6564 7.84108 30.9774 7.62512 31.1607L7.66395 31.2065ZM8.08984 30.2253H8.84375V30.1653H8.08984V30.2253ZM10.4805 28.2852H10.4505V28.3695L10.5037 28.3041L10.4805 28.2852ZM13.082 29.207H13.112L13.112 29.2068L13.082 29.207ZM13.082 32V32.03H13.112V32H13.082ZM12.3594 32H12.3294V32.03H12.3594V32ZM12.3594 29.2031H12.3894L12.3894 29.2029L12.3594 29.2031ZM12.1484 28.5273L12.1265 28.5478L12.1266 28.548L12.1484 28.5273ZM10.4805 28.9883L10.4505 28.9737V28.9883H10.4805ZM10.4805 32V32.03H10.5105V32H10.4805ZM9.75781 32H9.72781V32.03H9.75781V32ZM9.75781 26V25.97H9.72781V26H9.75781ZM10.4805 26H10.5105V25.97H10.4805V26ZM10.5037 28.3041C10.8183 27.918 11.2263 27.7253 11.7305 27.7253V27.6653C11.2085 27.6653 10.7833 27.8659 10.4572 28.2662L10.5037 28.3041ZM11.7305 27.7253C12.1714 27.7253 12.498 27.8495 12.7159 28.0932C12.9344 28.3376 13.0482 28.7072 13.052 29.2073L13.112 29.2068C13.1081 28.6991 12.9927 28.3128 12.7606 28.0532C12.528 27.793 12.1827 27.6653 11.7305 27.6653V27.7253ZM13.052 29.207V32H13.112V29.207H13.052ZM13.082 31.97H12.3594V32.03H13.082V31.97ZM12.3894 32V29.2031H12.3294V32H12.3894ZM12.3894 29.2029C12.3867 28.8944 12.3156 28.6603 12.1702 28.5067L12.1266 28.548C12.2573 28.686 12.3268 28.9025 12.3294 29.2034L12.3894 29.2029ZM12.1704 28.5069C12.0272 28.3527 11.8053 28.2786 11.5117 28.2786V28.3386C11.7963 28.3386 11.9989 28.4104 12.1265 28.5478L12.1704 28.5069ZM11.5117 28.2786C11.2717 28.2786 11.0598 28.3427 10.8772 28.4716L10.9118 28.5206C11.0834 28.3995 11.283 28.3386 11.5117 28.3386V28.2786ZM10.8772 28.4716C10.6958 28.5996 10.5546 28.7677 10.4535 28.9751L10.5074 29.0014C10.6043 28.8026 10.7391 28.6426 10.9118 28.5206L10.8772 28.4716ZM10.4505 28.9883V32H10.5105V28.9883H10.4505ZM10.4805 31.97H9.75781V32.03H10.4805V31.97ZM9.78781 32V26H9.72781V32H9.78781ZM9.75781 26.03H10.4805V25.97H9.75781V26.03ZM10.4505 26V28.2852H10.5105V26H10.4505ZM16.7734 32L16.7466 32.0134L16.7549 32.03H16.7734V32ZM16.6719 31.5547L16.7017 31.5511L16.694 31.4884L16.6503 31.5339L16.6719 31.5547ZM14.4414 31.7266L14.4214 31.7489L14.4217 31.7492L14.4414 31.7266ZM14.543 29.8047L14.5606 29.829L14.5606 29.8289L14.543 29.8047ZM16.6602 29.4375V29.4675H16.6902V29.4375H16.6602ZM16.4336 28.5039L16.4124 28.5251L16.4126 28.5253L16.4336 28.5039ZM14.8555 28.9453V28.9753H14.8855V28.9453H14.8555ZM14.1289 28.9453H14.0989V28.9753H14.1289V28.9453ZM14.3516 28.3359L14.3277 28.3177L14.3277 28.3178L14.3516 28.3359ZM14.9609 27.8672L14.9488 27.8398L14.9486 27.8398L14.9609 27.8672ZM16.9531 28.0625L16.9332 28.0849L16.9333 28.0851L16.9531 28.0625ZM17.3828 29.0664H17.4128L17.4128 29.0657L17.3828 29.0664ZM17.5312 31.9375H17.5639L17.5588 31.9256L17.5312 31.9375ZM17.5312 32V32.03H17.5612V32H17.5312ZM16.6602 30.8164L16.6902 30.831V30.8164H16.6602ZM16.6602 29.9492H16.6902V29.9192H16.6602V29.9492ZM16.8003 31.9866C16.7611 31.9083 16.7277 31.7645 16.7017 31.5511L16.6421 31.5583C16.6682 31.772 16.7024 31.925 16.7466 32.0134L16.8003 31.9866ZM16.6503 31.5339C16.3197 31.8772 15.9264 32.0481 15.4688 32.0481V32.1081C15.9434 32.1081 16.3521 31.9301 16.6935 31.5755L16.6503 31.5339ZM15.4688 32.0481C15.058 32.0481 14.723 31.9328 14.4611 31.704L14.4217 31.7492C14.6963 31.9891 15.0461 32.1081 15.4688 32.1081V32.0481ZM14.4614 31.7042C14.2023 31.473 14.073 31.1817 14.073 30.8281H14.013C14.013 31.1985 14.1493 31.5062 14.4214 31.7489L14.4614 31.7042ZM14.073 30.8281C14.073 30.3969 14.2356 30.0651 14.5606 29.829L14.5253 29.7804C14.1836 30.0287 14.013 30.3792 14.013 30.8281H14.073ZM14.5606 29.8289C14.8896 29.5892 15.3538 29.4675 15.957 29.4675V29.4075C15.3467 29.4075 14.8682 29.5305 14.5253 29.7804L14.5606 29.8289ZM15.957 29.4675H16.6602V29.4075H15.957V29.4675ZM16.6902 29.4375V29.1055H16.6302V29.4375H16.6902ZM16.6902 29.1055C16.6902 28.8465 16.6125 28.6377 16.4546 28.4825L16.4126 28.5253C16.5568 28.667 16.6302 28.8592 16.6302 29.1055H16.6902ZM16.4548 28.4827C16.2963 28.3242 16.0648 28.2473 15.7656 28.2473V28.3073C16.055 28.3073 16.2688 28.3816 16.4124 28.5251L16.4548 28.4827ZM15.7656 28.2473C15.5026 28.2473 15.2798 28.3139 15.0992 28.4486L15.1351 28.4967C15.3035 28.371 15.513 28.3073 15.7656 28.3073V28.2473ZM15.0992 28.4486C14.9187 28.5833 14.8255 28.7492 14.8255 28.9453H14.8855C14.8855 28.7716 14.9667 28.6224 15.1351 28.4967L15.0992 28.4486ZM14.8555 28.9153H14.1289V28.9753H14.8555V28.9153ZM14.1589 28.9453C14.1589 28.742 14.2303 28.5451 14.3754 28.3541L14.3277 28.3178C14.1759 28.5174 14.0989 28.7268 14.0989 28.9453H14.1589ZM14.3754 28.3541C14.5231 28.1607 14.722 28.0073 14.9732 27.8946L14.9486 27.8398C14.6895 27.9562 14.4821 28.1154 14.3277 28.3177L14.3754 28.3541ZM14.9731 27.8946C15.2268 27.7819 15.5051 27.7253 15.8086 27.7253V27.6653C15.4975 27.6653 15.2107 27.7233 14.9488 27.8398L14.9731 27.8946ZM15.8086 27.7253C16.2906 27.7253 16.6642 27.8464 16.9332 28.0849L16.973 28.0401C16.6899 27.789 16.3005 27.6653 15.8086 27.6653V27.7253ZM16.9333 28.0851C17.202 28.3208 17.3426 28.6469 17.3528 29.0671L17.4128 29.0657C17.4022 28.6317 17.2563 28.2886 16.9729 28.0399L16.9333 28.0851ZM17.3528 29.0664V31.0117H17.4128V29.0664H17.3528ZM17.3528 31.0117C17.3528 31.4018 17.4025 31.715 17.5037 31.9494L17.5588 31.9256C17.4621 31.7017 17.4128 31.3977 17.4128 31.0117H17.3528ZM17.5013 31.9375V32H17.5612V31.9375H17.5013ZM17.5312 31.97H16.7734V32.03H17.5312V31.97ZM15.5742 31.4792C15.8062 31.4792 16.0262 31.4191 16.2337 31.2994L16.2038 31.2475C16.005 31.3621 15.7953 31.4192 15.5742 31.4192V31.4792ZM16.2337 31.2994C16.4414 31.1796 16.5931 31.0231 16.6871 30.8295L16.6332 30.8033C16.545 30.9847 16.4024 31.1329 16.2038 31.2475L16.2337 31.2994ZM16.6902 30.8164V29.9492H16.6302V30.8164H16.6902ZM16.6602 29.9192H16.0938V29.9792H16.6602V29.9192ZM16.0938 29.9192C15.6491 29.9192 15.3107 29.9841 15.0825 30.1177C14.8518 30.2527 14.7356 30.4569 14.7356 30.7266H14.7956C14.7956 30.478 14.9008 30.2936 15.1128 30.1694C15.3273 30.0439 15.653 29.9792 16.0938 29.9792V29.9192ZM14.7356 30.7266C14.7356 30.9605 14.814 31.1466 14.9728 31.2807L15.0115 31.2349C14.8683 31.1139 14.7956 30.9457 14.7956 30.7266H14.7356ZM14.9728 31.2807C15.1303 31.4138 15.3316 31.4792 15.5742 31.4792V31.4192C15.3429 31.4192 15.1561 31.3571 15.0115 31.2349L14.9728 31.2807ZM19.4961 26.75H19.5261V26.72H19.4961V26.75ZM19.4961 27.7734H19.4661V27.8034H19.4961V27.7734ZM20.2852 27.7734H20.3152V27.7434H20.2852V27.7734ZM20.2852 28.332V28.362H20.3152V28.332H20.2852ZM19.4961 28.332V28.302H19.4661V28.332H19.4961ZM19.6016 31.3359L19.5783 31.3549L19.5786 31.3553L19.6016 31.3359ZM20.3047 31.4141H20.3347V31.377L20.2984 31.3847L20.3047 31.4141ZM20.3047 32L20.3126 32.0289L20.3347 32.0229V32H20.3047ZM18.7734 28.332H18.8034V28.302H18.7734V28.332ZM18.0039 28.332H17.9739V28.362H18.0039V28.332ZM18.0039 27.7734V27.7434H17.9739V27.7734H18.0039ZM18.7734 27.7734V27.8034H18.8034V27.7734H18.7734ZM18.7734 26.75V26.72H18.7434V26.75H18.7734ZM19.4661 26.75V27.7734H19.5261V26.75H19.4661ZM19.4961 27.8034H20.2852V27.7434H19.4961V27.8034ZM20.2552 27.7734V28.332H20.3152V27.7734H20.2552ZM20.2852 28.302H19.4961V28.362H20.2852V28.302ZM19.4661 28.332V30.9531H19.5261V28.332H19.4661ZM19.4661 30.9531C19.4661 31.1259 19.5019 31.2615 19.5783 31.3549L19.6248 31.3169C19.5606 31.2385 19.5261 31.1189 19.5261 30.9531H19.4661ZM19.5786 31.3553C19.6572 31.4484 19.7877 31.4909 19.9609 31.4909V31.4309C19.7956 31.4309 19.6866 31.3902 19.6245 31.3166L19.5786 31.3553ZM19.9609 31.4909C20.0474 31.4909 20.1644 31.4748 20.311 31.4434L20.2984 31.3847C20.1533 31.4158 20.0411 31.4309 19.9609 31.4309V31.4909ZM20.2747 31.4141V32H20.3347V31.4141H20.2747ZM20.2968 31.9711C20.109 32.0225 19.9268 32.0481 19.75 32.0481V32.1081C19.9326 32.1081 20.1202 32.0817 20.3126 32.0289L20.2968 31.9711ZM19.75 32.0481C19.4334 32.0481 19.1994 31.9526 19.0425 31.7659L18.9966 31.8045C19.1678 32.0083 19.4208 32.1081 19.75 32.1081V32.0481ZM19.0425 31.7659C18.8845 31.5778 18.8034 31.3083 18.8034 30.9531H18.7434C18.7434 31.3167 18.8264 31.6019 18.9966 31.8045L19.0425 31.7659ZM18.8034 30.9531V28.332H18.7434V30.9531H18.8034ZM18.7734 28.302H18.0039V28.362H18.7734V28.302ZM18.0339 28.332V27.7734H17.9739V28.332H18.0339ZM18.0039 27.8034H18.7734V27.7434H18.0039V27.8034ZM18.8034 27.7734V26.75H18.7434V27.7734H18.8034ZM18.7734 26.78H19.4961V26.72H18.7734V26.78Z" fill="black"/>
</g>
</svg>
