<svg width="36" height="38" viewBox="0 0 36 38" fill="none" xmlns="http://www.w3.org/2000/svg">
<path d="M24.02 3C18.21 3 14 7.74712 14 13.015C14 14.6975 14.49 16.4301 15.35 18.0125C15.51 18.2729 15.53 18.6034 15.42 18.9139L14.75 21.1572C14.6 21.698 15.06 22.0986 15.57 21.9384L17.59 21.3375C18.14 21.1572 18.57 21.3876 19.08 21.698C20.54 22.5593 22.36 23 24 23C28.96 23 34 19.1642 34 12.985C34 7.65699 29.7 3 24.02 3Z" fill="#6264A7"/>
<line x1="20.6" y1="11.4" x2="27.4" y2="11.4" stroke="white" stroke-width="1.2" stroke-linecap="round"/>
<line x1="20.55" y1="15.45" x2="24.45" y2="15.45" stroke="white" stroke-width="1.1" stroke-linecap="round"/>
<g opacity="0.65">
<path d="M19.8438 31.1953C19.7734 31.7969 19.5508 32.2617 19.1758 32.5898C18.8034 32.9154 18.3073 33.0781 17.6875 33.0781C17.0156 33.0781 16.4766 32.8372 16.0703 32.3555C15.6667 31.8737 15.4648 31.2292 15.4648 30.4219V29.875C15.4648 29.3464 15.5586 28.8815 15.7461 28.4805C15.9362 28.0794 16.2044 27.7721 16.5508 27.5586C16.8971 27.3424 17.2982 27.2344 17.7539 27.2344C18.3581 27.2344 18.8424 27.4036 19.207 27.7422C19.5716 28.0781 19.7839 28.5443 19.8438 29.1406H19.0898C19.0247 28.6875 18.8828 28.3594 18.6641 28.1562C18.4479 27.9531 18.1445 27.8516 17.7539 27.8516C17.2747 27.8516 16.8984 28.0286 16.625 28.3828C16.3542 28.737 16.2188 29.2409 16.2188 29.8945V30.4453C16.2188 31.0625 16.3477 31.5534 16.6055 31.918C16.8633 32.2826 17.224 32.4648 17.6875 32.4648C18.1042 32.4648 18.4232 32.3711 18.6445 32.1836C18.8685 31.9935 19.0169 31.6641 19.0898 31.1953H19.8438ZM21.4805 29.2852C21.8008 28.8919 22.2174 28.6953 22.7305 28.6953C23.6237 28.6953 24.0742 29.1992 24.082 30.207V33H23.3594V30.2031C23.3568 29.8984 23.2865 29.6732 23.1484 29.5273C23.013 29.3815 22.8008 29.3086 22.5117 29.3086C22.2773 29.3086 22.0716 29.3711 21.8945 29.4961C21.7174 29.6211 21.5794 29.7852 21.4805 29.9883V33H20.7578V27H21.4805V29.2852ZM27.7734 33C27.7318 32.9167 27.6979 32.7682 27.6719 32.5547C27.3359 32.9036 26.9349 33.0781 26.4688 33.0781C26.0521 33.0781 25.7096 32.9609 25.4414 32.7266C25.1758 32.4896 25.043 32.1901 25.043 31.8281C25.043 31.388 25.2096 31.0469 25.543 30.8047C25.8789 30.5599 26.3503 30.4375 26.957 30.4375H27.6602V30.1055C27.6602 29.8529 27.5846 29.6523 27.4336 29.5039C27.2826 29.3529 27.0599 29.2773 26.7656 29.2773C26.5078 29.2773 26.2917 29.3424 26.1172 29.4727C25.9427 29.6029 25.8555 29.7604 25.8555 29.9453H25.1289C25.1289 29.7344 25.2031 29.5312 25.3516 29.3359C25.5026 29.138 25.7057 28.9818 25.9609 28.8672C26.2188 28.7526 26.5013 28.6953 26.8086 28.6953C27.2956 28.6953 27.6771 28.8177 27.9531 29.0625C28.2292 29.3047 28.3724 29.6393 28.3828 30.0664V32.0117C28.3828 32.3997 28.4323 32.7083 28.5312 32.9375V33H27.7734ZM26.5742 32.4492C26.8008 32.4492 27.0156 32.3906 27.2188 32.2734C27.4219 32.1562 27.569 32.0039 27.6602 31.8164V30.9492H27.0938C26.2083 30.9492 25.7656 31.2083 25.7656 31.7266C25.7656 31.9531 25.8411 32.1302 25.9922 32.2578C26.1432 32.3854 26.3372 32.4492 26.5742 32.4492ZM30.4961 27.75V28.7734H31.2852V29.332H30.4961V31.9531C30.4961 32.1224 30.5312 32.25 30.6016 32.3359C30.6719 32.4193 30.7917 32.4609 30.9609 32.4609C31.0443 32.4609 31.1589 32.4453 31.3047 32.4141V33C31.1146 33.0521 30.9297 33.0781 30.75 33.0781C30.4271 33.0781 30.1836 32.9805 30.0195 32.7852C29.8555 32.5898 29.7734 32.3125 29.7734 31.9531V29.332H29.0039V28.7734H29.7734V27.75H30.4961Z" fill="#171942"/>
<path d="M19.8438 31.1953L19.8735 31.1988L19.8775 31.1653H19.8438V31.1953ZM19.1758 32.5898L19.1955 32.6124L19.1955 32.6124L19.1758 32.5898ZM16.0703 32.3555L16.0473 32.3747L16.0474 32.3748L16.0703 32.3555ZM15.7461 28.4805L15.719 28.4676L15.7189 28.4678L15.7461 28.4805ZM16.5508 27.5586L16.5665 27.5841L16.5667 27.584L16.5508 27.5586ZM19.207 27.7422L19.1866 27.7642L19.1867 27.7642L19.207 27.7422ZM19.8438 29.1406V29.1706H19.8769L19.8736 29.1376L19.8438 29.1406ZM19.0898 29.1406L19.0601 29.1449L19.0638 29.1706H19.0898V29.1406ZM18.6641 28.1562L18.6435 28.1781L18.6436 28.1782L18.6641 28.1562ZM16.625 28.3828L16.6013 28.3645L16.6012 28.3646L16.625 28.3828ZM18.6445 32.1836L18.6639 32.2065L18.6639 32.2065L18.6445 32.1836ZM19.0898 31.1953V31.1653H19.0641L19.0602 31.1907L19.0898 31.1953ZM19.814 31.1918C19.7443 31.7877 19.5243 32.245 19.156 32.5673L19.1955 32.6124C19.5773 32.2784 19.8026 31.8061 19.8735 31.1988L19.814 31.1918ZM19.156 32.5673C18.7904 32.8869 18.3019 33.0481 17.6875 33.0481V33.1081C18.3127 33.1081 18.8164 32.9438 19.1955 32.6124L19.156 32.5673ZM17.6875 33.0481C17.0238 33.0481 16.4934 32.8106 16.0932 32.3361L16.0474 32.3748C16.4597 32.8638 17.0074 33.1081 17.6875 33.1081V33.0481ZM16.0933 32.3362C15.6953 31.8612 15.4948 31.2242 15.4948 30.4219H15.4348C15.4348 31.2342 15.638 31.8862 16.0473 32.3747L16.0933 32.3362ZM15.4948 30.4219V29.875H15.4348V30.4219H15.4948ZM15.4948 29.875C15.4948 29.3499 15.588 28.8895 15.7733 28.4932L15.7189 28.4678C15.5292 28.8735 15.4348 29.3428 15.4348 29.875H15.4948ZM15.7732 28.4933C15.9611 28.097 16.2256 27.7944 16.5665 27.5841L16.535 27.5331C16.1833 27.7499 15.9113 28.0618 15.719 28.4676L15.7732 28.4933ZM16.5667 27.584C16.9077 27.3712 17.3031 27.2644 17.7539 27.2644V27.2044C17.2932 27.2044 16.8866 27.3137 16.5349 27.5331L16.5667 27.584ZM17.7539 27.2644C18.3522 27.2644 18.8287 27.4318 19.1866 27.7642L19.2274 27.7202C18.8562 27.3755 18.3639 27.2044 17.7539 27.2044V27.2644ZM19.1867 27.7642C19.5448 28.0942 19.7546 28.553 19.8139 29.1436L19.8736 29.1376C19.8131 28.5356 19.5984 28.062 19.2274 27.7201L19.1867 27.7642ZM19.8438 29.1106H19.0898V29.1706H19.8438V29.1106ZM19.1195 29.1364C19.054 28.6799 18.9103 28.344 18.6845 28.1343L18.6436 28.1782C18.8553 28.3748 18.9955 28.6951 19.0601 29.1449L19.1195 29.1364ZM18.6846 28.1344C18.4613 27.9246 18.1497 27.8216 17.7539 27.8216V27.8816C18.1394 27.8816 18.4345 27.9817 18.6435 28.1781L18.6846 28.1344ZM17.7539 27.8216C17.2662 27.8216 16.8808 28.0024 16.6013 28.3645L16.6487 28.4011C16.9161 28.0549 17.2833 27.8816 17.7539 27.8816V27.8216ZM16.6012 28.3646C16.3249 28.7259 16.1888 29.2372 16.1888 29.8945H16.2487C16.2487 29.2445 16.3835 28.748 16.6488 28.401L16.6012 28.3646ZM16.1888 29.8945V30.4453H16.2487V29.8945H16.1888ZM16.1888 30.4453C16.1888 31.0664 16.3184 31.564 16.581 31.9353L16.63 31.9006C16.3769 31.5427 16.2487 31.0586 16.2487 30.4453H16.1888ZM16.581 31.9353C16.8447 32.3082 17.2147 32.4948 17.6875 32.4948V32.4348C17.2333 32.4348 16.8819 32.2569 16.63 31.9006L16.581 31.9353ZM17.6875 32.4948C18.1082 32.4948 18.4352 32.4002 18.6639 32.2065L18.6251 32.1607C18.4111 32.342 18.1001 32.4348 17.6875 32.4348V32.4948ZM18.6639 32.2065C18.8959 32.0096 19.0461 31.6717 19.1195 31.1999L19.0602 31.1907C18.9878 31.6564 18.8411 31.9774 18.6251 32.1607L18.6639 32.2065ZM19.0898 31.2253H19.8438V31.1653H19.0898V31.2253ZM21.4805 29.2852H21.4505V29.3695L21.5037 29.3041L21.4805 29.2852ZM24.082 30.207H24.112L24.112 30.2068L24.082 30.207ZM24.082 33V33.03H24.112V33H24.082ZM23.3594 33H23.3294V33.03H23.3594V33ZM23.3594 30.2031H23.3894L23.3894 30.2029L23.3594 30.2031ZM23.1484 29.5273L23.1265 29.5478L23.1266 29.548L23.1484 29.5273ZM21.4805 29.9883L21.4505 29.9737V29.9883H21.4805ZM21.4805 33V33.03H21.5105V33H21.4805ZM20.7578 33H20.7278V33.03H20.7578V33ZM20.7578 27V26.97H20.7278V27H20.7578ZM21.4805 27H21.5105V26.97H21.4805V27ZM21.5037 29.3041C21.8183 28.918 22.2263 28.7253 22.7305 28.7253V28.6653C22.2085 28.6653 21.7833 28.8659 21.4572 29.2662L21.5037 29.3041ZM22.7305 28.7253C23.1714 28.7253 23.498 28.8495 23.7159 29.0932C23.9344 29.3376 24.0482 29.7072 24.052 30.2073L24.112 30.2068C24.1081 29.6991 23.9927 29.3128 23.7606 29.0532C23.528 28.793 23.1827 28.6653 22.7305 28.6653V28.7253ZM24.052 30.207V33H24.112V30.207H24.052ZM24.082 32.97H23.3594V33.03H24.082V32.97ZM23.3894 33V30.2031H23.3294V33H23.3894ZM23.3894 30.2029C23.3867 29.8944 23.3156 29.6603 23.1702 29.5067L23.1266 29.548C23.2573 29.686 23.3268 29.9025 23.3294 30.2034L23.3894 30.2029ZM23.1704 29.5069C23.0272 29.3527 22.8053 29.2786 22.5117 29.2786V29.3386C22.7963 29.3386 22.9989 29.4104 23.1265 29.5478L23.1704 29.5069ZM22.5117 29.2786C22.2717 29.2786 22.0598 29.3427 21.8772 29.4716L21.9118 29.5206C22.0834 29.3995 22.283 29.3386 22.5117 29.3386V29.2786ZM21.8772 29.4716C21.6958 29.5996 21.5546 29.7677 21.4535 29.9751L21.5074 30.0014C21.6043 29.8026 21.7391 29.6426 21.9118 29.5206L21.8772 29.4716ZM21.4505 29.9883V33H21.5105V29.9883H21.4505ZM21.4805 32.97H20.7578V33.03H21.4805V32.97ZM20.7878 33V27H20.7278V33H20.7878ZM20.7578 27.03H21.4805V26.97H20.7578V27.03ZM21.4505 27V29.2852H21.5105V27H21.4505ZM27.7734 33L27.7466 33.0134L27.7549 33.03H27.7734V33ZM27.6719 32.5547L27.7017 32.5511L27.694 32.4884L27.6503 32.5339L27.6719 32.5547ZM25.4414 32.7266L25.4214 32.7489L25.4217 32.7492L25.4414 32.7266ZM25.543 30.8047L25.5606 30.829L25.5606 30.8289L25.543 30.8047ZM27.6602 30.4375V30.4675H27.6902V30.4375H27.6602ZM27.4336 29.5039L27.4124 29.5251L27.4126 29.5253L27.4336 29.5039ZM25.8555 29.9453V29.9753H25.8855V29.9453H25.8555ZM25.1289 29.9453H25.0989V29.9753H25.1289V29.9453ZM25.3516 29.3359L25.3277 29.3177L25.3277 29.3178L25.3516 29.3359ZM25.9609 28.8672L25.9488 28.8398L25.9486 28.8398L25.9609 28.8672ZM27.9531 29.0625L27.9332 29.0849L27.9333 29.0851L27.9531 29.0625ZM28.3828 30.0664H28.4128L28.4128 30.0657L28.3828 30.0664ZM28.5312 32.9375H28.5639L28.5588 32.9256L28.5312 32.9375ZM28.5312 33V33.03H28.5612V33H28.5312ZM27.6602 31.8164L27.6902 31.831V31.8164H27.6602ZM27.6602 30.9492H27.6902V30.9192H27.6602V30.9492ZM27.8003 32.9866C27.7611 32.9083 27.7277 32.7645 27.7017 32.5511L27.6421 32.5583C27.6682 32.772 27.7024 32.925 27.7466 33.0134L27.8003 32.9866ZM27.6503 32.5339C27.3197 32.8772 26.9264 33.0481 26.4688 33.0481V33.1081C26.9434 33.1081 27.3521 32.9301 27.6935 32.5755L27.6503 32.5339ZM26.4688 33.0481C26.058 33.0481 25.723 32.9328 25.4611 32.704L25.4217 32.7492C25.6963 32.9891 26.0461 33.1081 26.4688 33.1081V33.0481ZM25.4614 32.7042C25.2023 32.473 25.073 32.1817 25.073 31.8281H25.013C25.013 32.1985 25.1493 32.5062 25.4214 32.7489L25.4614 32.7042ZM25.073 31.8281C25.073 31.3969 25.2356 31.0651 25.5606 30.829L25.5253 30.7804C25.1836 31.0287 25.013 31.3792 25.013 31.8281H25.073ZM25.5606 30.8289C25.8896 30.5892 26.3538 30.4675 26.957 30.4675V30.4075C26.3467 30.4075 25.8682 30.5305 25.5253 30.7804L25.5606 30.8289ZM26.957 30.4675H27.6602V30.4075H26.957V30.4675ZM27.6902 30.4375V30.1055H27.6302V30.4375H27.6902ZM27.6902 30.1055C27.6902 29.8465 27.6125 29.6377 27.4546 29.4825L27.4126 29.5253C27.5568 29.667 27.6302 29.8592 27.6302 30.1055H27.6902ZM27.4548 29.4827C27.2963 29.3242 27.0648 29.2473 26.7656 29.2473V29.3073C27.055 29.3073 27.2688 29.3816 27.4124 29.5251L27.4548 29.4827ZM26.7656 29.2473C26.5026 29.2473 26.2798 29.3139 26.0992 29.4486L26.1351 29.4967C26.3035 29.371 26.5131 29.3073 26.7656 29.3073V29.2473ZM26.0992 29.4486C25.9187 29.5833 25.8255 29.7492 25.8255 29.9453H25.8855C25.8855 29.7716 25.9667 29.6224 26.1351 29.4967L26.0992 29.4486ZM25.8555 29.9153H25.1289V29.9753H25.8555V29.9153ZM25.1589 29.9453C25.1589 29.742 25.2303 29.5451 25.3754 29.3541L25.3277 29.3178C25.1759 29.5174 25.0989 29.7268 25.0989 29.9453H25.1589ZM25.3754 29.3541C25.5231 29.1607 25.722 29.0073 25.9732 28.8946L25.9486 28.8398C25.6895 28.9562 25.4821 29.1154 25.3277 29.3177L25.3754 29.3541ZM25.9731 28.8946C26.2268 28.7819 26.5051 28.7253 26.8086 28.7253V28.6653C26.4975 28.6653 26.2107 28.7233 25.9488 28.8398L25.9731 28.8946ZM26.8086 28.7253C27.2906 28.7253 27.6642 28.8464 27.9332 29.0849L27.973 29.0401C27.6899 28.789 27.3005 28.6653 26.8086 28.6653V28.7253ZM27.9333 29.0851C28.202 29.3208 28.3426 29.6469 28.3528 30.0671L28.4128 30.0657C28.4022 29.6317 28.2563 29.2886 27.9729 29.0399L27.9333 29.0851ZM28.3528 30.0664V32.0117H28.4128V30.0664H28.3528ZM28.3528 32.0117C28.3528 32.4018 28.4025 32.715 28.5037 32.9494L28.5588 32.9256C28.4621 32.7017 28.4128 32.3977 28.4128 32.0117H28.3528ZM28.5013 32.9375V33H28.5612V32.9375H28.5013ZM28.5312 32.97H27.7734V33.03H28.5312V32.97ZM26.5742 32.4792C26.8062 32.4792 27.0262 32.4191 27.2337 32.2994L27.2038 32.2475C27.005 32.3621 26.7953 32.4192 26.5742 32.4192V32.4792ZM27.2337 32.2994C27.4414 32.1796 27.5931 32.0231 27.6871 31.8295L27.6332 31.8033C27.545 31.9847 27.4024 32.1329 27.2038 32.2475L27.2337 32.2994ZM27.6902 31.8164V30.9492H27.6302V31.8164H27.6902ZM27.6602 30.9192H27.0938V30.9792H27.6602V30.9192ZM27.0938 30.9192C26.6491 30.9192 26.3107 30.9841 26.0825 31.1177C25.8518 31.2527 25.7356 31.4569 25.7356 31.7266H25.7956C25.7956 31.478 25.9008 31.2936 26.1128 31.1694C26.3273 31.0439 26.653 30.9792 27.0938 30.9792V30.9192ZM25.7356 31.7266C25.7356 31.9605 25.814 32.1466 25.9728 32.2807L26.0115 32.2349C25.8683 32.1139 25.7956 31.9457 25.7956 31.7266H25.7356ZM25.9728 32.2807C26.1303 32.4138 26.3316 32.4792 26.5742 32.4792V32.4192C26.3429 32.4192 26.1561 32.3571 26.0115 32.2349L25.9728 32.2807ZM30.4961 27.75H30.5261V27.72H30.4961V27.75ZM30.4961 28.7734H30.4661V28.8034H30.4961V28.7734ZM31.2852 28.7734H31.3152V28.7434H31.2852V28.7734ZM31.2852 29.332V29.362H31.3152V29.332H31.2852ZM30.4961 29.332V29.302H30.4661V29.332H30.4961ZM30.6016 32.3359L30.5783 32.3549L30.5786 32.3553L30.6016 32.3359ZM31.3047 32.4141H31.3347V32.377L31.2984 32.3847L31.3047 32.4141ZM31.3047 33L31.3126 33.0289L31.3347 33.0229V33H31.3047ZM29.7734 29.332H29.8034V29.302H29.7734V29.332ZM29.0039 29.332H28.9739V29.362H29.0039V29.332ZM29.0039 28.7734V28.7434H28.9739V28.7734H29.0039ZM29.7734 28.7734V28.8034H29.8034V28.7734H29.7734ZM29.7734 27.75V27.72H29.7434V27.75H29.7734ZM30.4661 27.75V28.7734H30.5261V27.75H30.4661ZM30.4961 28.8034H31.2852V28.7434H30.4961V28.8034ZM31.2552 28.7734V29.332H31.3152V28.7734H31.2552ZM31.2852 29.302H30.4961V29.362H31.2852V29.302ZM30.4661 29.332V31.9531H30.5261V29.332H30.4661ZM30.4661 31.9531C30.4661 32.1259 30.5019 32.2615 30.5783 32.3549L30.6248 32.3169C30.5606 32.2385 30.5261 32.1189 30.5261 31.9531H30.4661ZM30.5786 32.3553C30.6572 32.4484 30.7877 32.4909 30.9609 32.4909V32.4309C30.7956 32.4309 30.6866 32.3902 30.6245 32.3166L30.5786 32.3553ZM30.9609 32.4909C31.0474 32.4909 31.1644 32.4748 31.311 32.4434L31.2984 32.3847C31.1533 32.4158 31.0411 32.4309 30.9609 32.4309V32.4909ZM31.2747 32.4141V33H31.3347V32.4141H31.2747ZM31.2968 32.9711C31.109 33.0225 30.9268 33.0481 30.75 33.0481V33.1081C30.9326 33.1081 31.1202 33.0817 31.3126 33.0289L31.2968 32.9711ZM30.75 33.0481C30.4334 33.0481 30.1994 32.9527 30.0425 32.7659L29.9966 32.8045C30.1678 33.0083 30.4208 33.1081 30.75 33.1081V33.0481ZM30.0425 32.7659C29.8845 32.5778 29.8034 32.3083 29.8034 31.9531H29.7434C29.7434 32.3167 29.8264 32.6019 29.9966 32.8045L30.0425 32.7659ZM29.8034 31.9531V29.332H29.7434V31.9531H29.8034ZM29.7734 29.302H29.0039V29.362H29.7734V29.302ZM29.0339 29.332V28.7734H28.9739V29.332H29.0339ZM29.0039 28.8034H29.7734V28.7434H29.0039V28.8034ZM29.8034 28.7734V27.75H29.7434V28.7734H29.8034ZM29.7734 27.78H30.4961V27.72H29.7734V27.78Z" fill="#0007FF"/>
</g>
<line x1="1.15" x2="1.15" y2="37.5" stroke="#6264A7" stroke-width="2.3"/>
</svg>
