<svg width="724" height="712" viewBox="0 0 724 712" fill="none" xmlns="http://www.w3.org/2000/svg">
<path d="M382.422 237.341C439.759 237.341 486.239 190.85 486.239 133.5C486.239 76.1503 439.759 29.6592 382.422 29.6592C325.086 29.6592 278.605 76.1503 278.605 133.5C278.605 190.85 325.086 237.341 382.422 237.341Z" fill="#7B83EB"/>
<path opacity="0.1" d="M375.015 155.75H280.986L281.453 157.819L281.497 157.997L281.987 159.911C288.819 185.826 305.396 208.099 328.256 222.079C351.116 236.059 378.492 240.666 404.667 234.938V185.409C404.644 177.55 401.512 170.02 395.956 164.463C390.4 158.906 382.872 155.773 375.015 155.75Z" fill="black"/>
<path opacity="0.2" d="M352.77 178H288.616C297.035 195.756 310.32 210.758 326.925 221.262C343.53 231.766 362.775 237.342 382.422 237.341V207.659C382.399 199.8 379.267 192.27 373.711 186.713C368.156 181.156 360.627 178.023 352.77 178Z" fill="black"/>
<path d="M615.994 244.75C658.993 244.75 693.851 209.884 693.851 166.875C693.851 123.866 658.993 89 615.994 89C572.995 89 538.137 123.866 538.137 166.875C538.137 209.884 572.995 244.75 615.994 244.75Z" fill="#5059C9"/>
<path d="M682.729 267H507.861C504.086 267 500.464 268.5 497.794 271.171C495.125 273.841 493.625 277.463 493.625 281.24V461.688C493.143 487.803 501.646 513.292 517.711 533.885C533.776 554.478 556.427 568.925 581.87 574.806C598.075 578.208 614.835 577.951 630.928 574.056C647.022 570.161 662.044 562.725 674.902 552.29C687.76 541.854 698.13 528.682 705.256 513.733C712.382 498.783 716.085 482.432 716.096 465.87V300.375C716.096 291.523 712.58 283.034 706.323 276.775C700.065 270.516 691.578 267 682.729 267Z" fill="#5059C9"/>
<path d="M560.382 300.375V511.75C560.404 550.922 547.498 589.006 523.668 620.092C499.838 651.178 466.415 673.526 428.588 683.67C390.761 693.814 350.643 691.185 314.462 676.192C278.281 661.199 248.06 634.68 228.488 600.75C224.207 593.634 220.489 586.195 217.365 578.5C214.454 571.245 212.002 563.813 210.025 556.25C206.357 541.7 204.49 526.755 204.463 511.75V300.375C204.458 295.991 205.317 291.648 206.991 287.596C208.666 283.544 211.124 279.863 214.223 276.762C217.323 273.662 221.004 271.204 225.055 269.529C229.106 267.853 233.447 266.994 237.831 267H527.014C531.398 266.994 535.74 267.853 539.791 269.529C543.841 271.204 547.522 273.662 550.622 276.762C553.721 279.863 556.179 283.544 557.854 287.596C559.529 291.648 560.388 295.991 560.382 300.375Z" fill="#7B83EB"/>
<path opacity="0.2" d="M352.77 178H288.616C297.035 195.756 310.32 210.758 326.925 221.262C343.53 231.766 362.775 237.342 382.422 237.341V207.659C382.399 199.8 379.267 192.27 373.711 186.713C368.156 181.156 360.627 178.023 352.77 178Z" fill="black"/>
<path opacity="0.1" d="M404.667 267V548.908C404.668 555.615 402.373 562.12 398.164 567.342C393.955 572.564 388.086 576.187 381.533 577.61C379.44 578.233 377.265 578.533 375.082 578.5H217.365C214.454 571.245 212.002 563.813 210.025 556.25C206.357 541.7 204.49 526.755 204.463 511.75V300.375C204.458 295.991 205.317 291.648 206.991 287.596C208.666 283.544 211.124 279.863 214.223 276.762C217.323 273.662 221.004 271.204 225.055 269.529C229.106 267.853 233.447 266.994 237.831 267H404.667Z" fill="black"/>
<path opacity="0.2" d="M382.423 267V571.158C382.455 573.341 382.155 575.517 381.533 577.61C380.11 584.165 376.488 590.035 371.267 594.245C366.047 598.455 359.543 600.75 352.837 600.75H228.488C224.207 593.634 220.489 586.195 217.365 578.5C214.454 571.245 212.002 563.813 210.025 556.25C206.357 541.7 204.49 526.755 204.463 511.75V300.375C204.458 295.991 205.317 291.648 206.991 287.596C208.666 283.544 211.124 279.863 214.223 276.762C217.323 273.662 221.004 271.204 225.055 269.529C229.106 267.853 233.447 266.994 237.831 267H382.423Z" fill="black"/>
<path opacity="0.2" d="M382.423 267V526.658C382.387 534.495 379.259 542.002 373.718 547.544C368.177 553.086 360.673 556.215 352.837 556.25H210.025C206.357 541.7 204.49 526.755 204.463 511.75V300.375C204.458 295.991 205.317 291.648 206.991 287.596C208.666 283.544 211.124 279.863 214.223 276.762C217.323 273.662 221.004 271.204 225.055 269.529C229.106 267.853 233.447 266.994 237.831 267H382.423Z" fill="black"/>
<path opacity="0.2" d="M237.831 267C233.447 266.994 229.106 267.853 225.055 269.529C221.004 271.204 217.323 273.662 214.223 276.762C211.124 279.863 208.666 283.544 206.991 287.596C205.317 291.648 204.458 295.991 204.463 300.375V511.75C204.49 526.755 206.357 541.7 210.025 556.25H330.592C338.428 556.215 345.933 553.086 351.473 547.544C357.014 542.002 360.143 534.495 360.178 526.658V267H237.831Z" fill="black"/>
<path d="M33.9117 178H330.525C338.39 178 345.932 181.125 351.493 186.687C357.054 192.249 360.178 199.793 360.178 207.659V504.341C360.178 512.207 357.054 519.751 351.493 525.313C345.932 530.875 338.39 534 330.525 534H33.9117C26.0474 534 18.5052 530.875 12.9443 525.313C7.38337 519.751 4.25928 512.207 4.25928 504.341L4.25928 207.659C4.25928 199.793 7.38337 192.249 12.9443 186.687C18.5052 181.125 26.0474 178 33.9117 178Z" fill="#4B53BC"/>
<path d="M270.753 288.694H204.241V467.139H160.596V288.694H93.6836V244.861H270.753V288.694Z" fill="white"/>
</svg>
